<svg width="55" height="53" viewBox="0 0 55 53" fill="none" xmlns="http://www.w3.org/2000/svg">
<path d="M54.3996 17.2235C54.2989 17.2235 54.1982 17.2034 54.0975 17.143L44.8958 11.8273C44.6139 11.6662 44.5132 11.2836 44.6743 11.0017C44.8354 10.7198 45.218 10.6192 45.4998 10.7802L54.7016 16.0959C54.9835 16.257 55.0842 16.6396 54.9231 16.9215C54.8023 17.1027 54.6009 17.2235 54.3996 17.2235Z" fill="#C4EF17"/>
<path d="M48.5604 20.6061C48.4597 20.6061 48.359 20.5859 48.2584 20.5255L39.0566 15.2098C38.7747 15.0488 38.674 14.6662 38.8351 14.3843C38.9962 14.1024 39.3788 14.0017 39.6607 14.1628L48.8624 19.4785C49.1443 19.6396 49.245 20.0221 49.0839 20.304C48.9631 20.4853 48.7618 20.6061 48.5604 20.6061Z" fill="#C4EF17"/>
<path d="M42.701 23.9686C42.6004 23.9686 42.4997 23.9485 42.399 23.8881L33.1973 18.5724C32.9154 18.4113 32.8147 18.0287 32.9758 17.7468C33.1369 17.465 33.5194 17.3643 33.8013 17.5254L43.0031 22.841C43.285 23.0021 43.3857 23.3847 43.2246 23.6666C43.1239 23.8679 42.9225 23.9686 42.701 23.9686Z" fill="#C4EF17"/>
<path d="M36.8619 27.3514C36.7612 27.3514 36.6605 27.3313 36.5598 27.2709L27.3581 21.9552C27.0762 21.7941 26.9756 21.4116 27.1366 21.1297C27.2977 20.8478 27.6803 20.7471 27.9621 20.9082L37.1639 26.2239C37.4458 26.3849 37.5465 26.7675 37.3854 27.0494C37.2646 27.2306 37.0632 27.3514 36.8619 27.3514Z" fill="#C4EF17"/>
<path d="M39.3385 46.1576C39.1371 46.1576 38.9358 46.0569 38.815 45.8556C38.6539 45.5737 38.7545 45.1911 39.0364 45.03L44.8756 41.6675C45.1575 41.5064 45.5401 41.607 45.7012 41.8889C45.8623 42.1708 45.7616 42.5534 45.4797 42.7145L39.6405 46.0771C39.5398 46.1375 39.4391 46.1576 39.3385 46.1576Z" fill="#C4EF17"/>
<path d="M27.64 52.9231C27.4386 52.9231 27.2372 52.8224 27.1164 52.6211C26.9553 52.3392 27.056 51.9566 27.3379 51.7955L33.1771 48.4128C33.459 48.2517 33.8416 48.3524 34.0026 48.6343C34.1637 48.9162 34.0631 49.2988 33.7812 49.4598L27.942 52.8425C27.8614 52.8828 27.7608 52.9231 27.64 52.9231Z" fill="#C4EF17"/>
<path d="M45.1777 42.795C44.9763 42.795 44.775 42.6944 44.6542 42.493C44.4931 42.2111 44.5938 41.8285 44.8757 41.6675L54.0976 36.3518C54.3795 36.1907 54.7621 36.2914 54.9231 36.5733C55.0842 36.8552 54.9835 37.2377 54.7016 37.3988L45.4797 42.7145C45.3791 42.7749 45.2784 42.795 45.1777 42.795Z" fill="#C4EF17"/>
<path d="M33.4993 49.5403C33.2979 49.5403 33.0966 49.4396 32.9758 49.2382C32.8147 48.9564 32.9154 48.5738 33.1973 48.4127L39.0365 45.03C39.3184 44.8689 39.7009 44.9696 39.862 45.2515C40.0231 45.5334 39.9224 45.9159 39.6405 46.077L33.8013 49.4597C33.7006 49.5201 33.6 49.5403 33.4993 49.5403Z" fill="#C4EF17"/>
<path d="M48.5604 34.0967C48.359 34.0967 48.1576 33.996 48.0368 33.7946C47.8758 33.5128 47.9764 33.1302 48.2583 32.9691L54.0975 29.5864C54.3794 29.4253 54.762 29.526 54.9231 29.8079C55.0842 30.0898 54.9835 30.4723 54.7016 30.6334L48.8624 34.0161C48.7617 34.0765 48.661 34.0967 48.5604 34.0967Z" fill="#C4EF17"/>
<path d="M39.3385 39.4125C39.1371 39.4125 38.9358 39.3118 38.815 39.1104C38.6539 38.8285 38.7545 38.446 39.0364 38.2849L48.2583 32.9692C48.5402 32.8081 48.9228 32.9088 49.0839 33.1907C49.245 33.4726 49.1443 33.8552 48.8624 34.0162L39.6405 39.3319C39.5398 39.3923 39.4391 39.4125 39.3385 39.4125Z" fill="#C4EF17"/>
<path d="M27.64 46.1577C27.4386 46.1577 27.2372 46.057 27.1164 45.8557C26.9553 45.5738 27.056 45.1912 27.3379 45.0301L33.1771 41.6474C33.459 41.4864 33.8416 41.587 34.0026 41.8689C34.1637 42.1508 34.0631 42.5334 33.7812 42.6945L27.942 46.0772C27.8614 46.1376 27.7608 46.1577 27.64 46.1577Z" fill="#C4EF17"/>
<path d="M21.8008 49.5404C21.5994 49.5404 21.3981 49.4397 21.2772 49.2384C21.1162 48.9565 21.2169 48.5739 21.4988 48.4128L27.338 45.0503C27.6198 44.8892 28.0024 44.9899 28.1635 45.2717C28.3245 45.5536 28.2239 45.9362 27.942 46.0973L22.1028 49.4599C22.0021 49.5203 21.9015 49.5404 21.8008 49.5404Z" fill="#C4EF17"/>
<path d="M33.4993 42.795C33.2979 42.795 33.0966 42.6944 32.9758 42.493C32.8147 42.2111 32.9154 41.8286 33.1973 41.6675L39.0365 38.3049C39.3184 38.1438 39.7009 38.2445 39.862 38.5264C40.0231 38.8083 39.9224 39.1908 39.6405 39.3519L33.8013 42.7145C33.7006 42.7548 33.6 42.795 33.4993 42.795Z" fill="#C4EF17"/>
<path d="M27.64 39.4123C27.4386 39.4123 27.2372 39.3117 27.1164 39.1103C26.9553 38.8284 27.056 38.4459 27.3379 38.2848L33.1771 34.9021C33.459 34.741 33.8416 34.8417 34.0026 35.1236C34.1637 35.4055 34.0631 35.788 33.7812 35.9491L27.942 39.3318C27.8614 39.3922 27.7406 39.4123 27.64 39.4123Z" fill="#C4EF17"/>
<path d="M21.8008 42.7952C21.5994 42.7952 21.3981 42.6945 21.2772 42.4931C21.1162 42.2112 21.2169 41.8287 21.4988 41.6676L27.338 38.2849C27.6198 38.1238 28.0024 38.2245 28.1635 38.5064C28.3245 38.7883 28.2239 39.1708 27.942 39.3319L22.1028 42.7146C22.0021 42.775 21.9015 42.7952 21.8008 42.7952Z" fill="#C4EF17"/>
<path d="M33.4993 36.0296C33.2979 36.0296 33.0966 35.929 32.9758 35.7276C32.8147 35.4457 32.9154 35.0632 33.1973 34.9021L42.4192 29.5864C42.7011 29.4253 43.0837 29.526 43.2447 29.8079C43.4058 30.0898 43.3051 30.4723 43.0232 30.6334L33.8013 35.9491C33.7006 36.0095 33.6 36.0296 33.4993 36.0296Z" fill="#C4EF17"/>
<path d="M15.9616 46.1576C15.7602 46.1576 15.5589 46.0569 15.4381 45.8556C15.277 45.5737 15.3777 45.1911 15.6596 45.03L21.4988 41.6675C21.7807 41.5064 22.1632 41.607 22.3243 41.8889C22.4854 42.1708 22.3847 42.5534 22.1028 42.7145L16.2636 46.0771C16.1629 46.1375 16.0623 46.1576 15.9616 46.1576Z" fill="#C4EF17"/>
<path d="M42.7011 30.7141C42.4997 30.7141 42.2984 30.6134 42.1776 30.4121C42.0165 30.1302 42.1172 29.7476 42.399 29.5865L48.2382 26.2038C48.5201 26.0427 48.9027 26.1434 49.0638 26.4253C49.2249 26.7072 49.1242 27.0898 48.8423 27.2509L43.0031 30.6336C42.9226 30.694 42.8018 30.7141 42.7011 30.7141Z" fill="#C4EF17"/>
<path d="M48.5604 27.3516C48.359 27.3516 48.1576 27.2509 48.0368 27.0495C47.8758 26.7676 47.9764 26.3851 48.2583 26.224L54.0975 22.8413C54.3794 22.6802 54.762 22.7809 54.9231 23.0628C55.0842 23.3447 54.9835 23.7272 54.7016 23.8883L48.8624 27.271C48.7617 27.3113 48.661 27.3516 48.5604 27.3516Z" fill="#C4EF17"/>
<path d="M48.5604 20.6062C48.359 20.6062 48.1576 20.5055 48.0368 20.3042C47.8758 20.0223 47.9764 19.6397 48.2583 19.4786L54.0975 16.0959C54.3794 15.9348 54.762 16.0355 54.9231 16.3174C55.0842 16.5993 54.9835 16.9819 54.7016 17.1429L48.8624 20.5257C48.7617 20.5659 48.661 20.6062 48.5604 20.6062Z" fill="#C4EF17"/>
<path d="M36.8618 27.3514C36.6605 27.3514 36.4592 27.2508 36.3384 27.0494C36.1773 26.7675 36.2779 26.385 36.5598 26.2239L42.399 22.8613C42.6809 22.7002 43.0635 22.8009 43.2246 23.0828C43.3857 23.3647 43.285 23.7472 43.0031 23.9083L37.1639 27.2709C37.0632 27.3112 36.9625 27.3514 36.8618 27.3514Z" fill="#C4EF17"/>
<path d="M21.8008 36.0297C21.5994 36.0297 21.3981 35.929 21.2772 35.7276C21.1162 35.4457 21.2169 35.0632 21.4988 34.9021L27.338 31.5395C27.6198 31.3784 28.0024 31.4791 28.1635 31.761C28.3245 32.0429 28.2239 32.4255 27.942 32.5865L22.1028 35.9491C22.0223 36.0095 21.9015 36.0297 21.8008 36.0297Z" fill="#C4EF17"/>
<path d="M15.9616 39.4123C15.7602 39.4123 15.5589 39.3117 15.4381 39.1103C15.277 38.8284 15.3777 38.4459 15.6596 38.2848L21.4988 34.9021C21.7807 34.741 22.1632 34.8417 22.3243 35.1236C22.4854 35.4055 22.3847 35.788 22.1028 35.9491L16.2636 39.3318C16.1629 39.3922 16.0623 39.4123 15.9616 39.4123Z" fill="#C4EF17"/>
<path d="M10.1224 42.7952C9.92101 42.7952 9.71966 42.6945 9.59885 42.4931C9.43777 42.2112 9.53844 41.8287 9.82033 41.6676L15.6595 38.2849C15.9414 38.1238 16.324 38.2245 16.4851 38.5064C16.6461 38.7883 16.5455 39.1708 16.2636 39.3319L10.4244 42.7146C10.3237 42.775 10.223 42.7952 10.1224 42.7952Z" fill="#C4EF17"/>
<path d="M27.64 32.6671C27.4386 32.6671 27.2372 32.5664 27.1164 32.3651C26.9553 32.0832 27.056 31.7006 27.3379 31.5395L36.5598 26.2238C36.8417 26.0628 37.2243 26.1634 37.3854 26.4453C37.5464 26.7272 37.4457 27.1098 37.1638 27.2709L27.942 32.5866C27.8614 32.647 27.7406 32.6671 27.64 32.6671Z" fill="#C4EF17"/>
<path d="M42.7011 23.9687C42.4997 23.9687 42.2984 23.8681 42.1776 23.6667C42.0165 23.3848 42.1172 23.0023 42.399 22.8412L48.2382 19.4585C48.5201 19.2974 48.9027 19.3981 49.0638 19.68C49.2249 19.9618 49.1242 20.3444 48.8423 20.5055L43.0031 23.8882C42.9226 23.9486 42.8018 23.9687 42.7011 23.9687Z" fill="#C4EF17"/>
<path d="M10.1224 42.795C10.0217 42.795 9.92104 42.7749 9.82037 42.7145L0.61861 37.3988C0.336718 37.2377 0.236047 36.8552 0.397128 36.5733C0.55821 36.2914 0.940773 36.1907 1.22266 36.3518L10.4244 41.6675C10.7063 41.8285 10.807 42.2111 10.6459 42.493C10.5251 42.6742 10.3237 42.795 10.1224 42.795Z" fill="#C4EF17"/>
<path d="M15.9616 39.4125C15.8609 39.4125 15.7602 39.3923 15.6595 39.3319L6.45778 34.0162C6.17589 33.8552 6.07522 33.4726 6.2363 33.1907C6.39738 32.9088 6.77995 32.8081 7.06184 32.9692L16.2636 38.2849C16.5455 38.446 16.6462 38.8285 16.4851 39.1104C16.3643 39.3118 16.1629 39.4125 15.9616 39.4125Z" fill="#C4EF17"/>
<path d="M21.8008 36.0296C21.7001 36.0296 21.5995 36.0095 21.4988 35.9491L12.297 30.6334C12.0151 30.4723 11.9145 30.0898 12.0755 29.8079C12.2366 29.526 12.6192 29.4253 12.9011 29.5864L22.1029 34.9021C22.3847 35.0632 22.4854 35.4457 22.3243 35.7276C22.2236 35.929 22.0223 36.0296 21.8008 36.0296Z" fill="#C4EF17"/>
<path d="M27.64 32.6671C27.5393 32.6671 27.4387 32.647 27.338 32.5866L18.1362 27.2709C17.8543 27.1098 17.7536 26.7272 17.9147 26.4453C18.0758 26.1634 18.4583 26.0628 18.7402 26.2238L27.942 31.5395C28.2239 31.7006 28.3246 32.0832 28.1635 32.3651C28.0628 32.5664 27.8615 32.6671 27.64 32.6671Z" fill="#C4EF17"/>
<path d="M10.1224 11.9077C9.92101 11.9077 9.71966 11.807 9.59885 11.6057C9.43777 11.3238 9.53844 10.9412 9.82033 10.7801L15.6595 7.39743C15.9414 7.23635 16.324 7.33703 16.4851 7.61892C16.6461 7.90081 16.5455 8.28338 16.2636 8.44446L10.4244 11.8272C10.3237 11.8876 10.223 11.9077 10.1224 11.9077Z" fill="#C4EF17"/>
<path d="M21.8008 5.16247C21.5994 5.16247 21.3981 5.0618 21.2772 4.86045C21.1162 4.57855 21.2169 4.19599 21.4988 4.03491L27.338 0.672335C27.6198 0.511254 28.0024 0.611929 28.1635 0.893821C28.3245 1.17571 28.2239 1.55828 27.942 1.71936L22.1028 5.08193C22.0223 5.1222 21.9216 5.16247 21.8008 5.16247Z" fill="#C4EF17"/>
<path d="M15.9616 8.52514C15.7602 8.52514 15.5589 8.42446 15.4381 8.22311C15.277 7.94122 15.3777 7.55865 15.6596 7.39757L21.4988 4.01486C21.7807 3.85378 22.1632 3.95446 22.3243 4.23635C22.4854 4.51824 22.3847 4.90081 22.1028 5.06189L16.2636 8.4446C16.1629 8.505 16.0623 8.52514 15.9616 8.52514Z" fill="#C4EF17"/>
<path d="M0.900514 17.2235C0.699163 17.2235 0.497792 17.1228 0.376981 16.9215C0.2159 16.6396 0.316595 16.257 0.598487 16.0959L9.82037 10.7802C10.1023 10.6192 10.4848 10.7198 10.6459 11.0017C10.807 11.2836 10.7063 11.6662 10.4244 11.8273L1.20254 17.143C1.122 17.2034 1.00119 17.2235 0.900514 17.2235Z" fill="#C4EF17"/>
<path d="M0.900514 23.9687C0.699163 23.9687 0.497792 23.8681 0.376981 23.6667C0.2159 23.3848 0.316595 23.0023 0.598487 22.8412L6.43768 19.4585C6.71957 19.2974 7.10214 19.3981 7.26322 19.68C7.4243 19.9618 7.32363 20.3444 7.04174 20.5055L1.20254 23.8882C1.10187 23.9486 1.00119 23.9687 0.900514 23.9687Z" fill="#C4EF17"/>
<path d="M27.6601 8.52514C27.4588 8.52514 27.2574 8.42446 27.1366 8.22311C26.9756 7.94122 27.0762 7.55865 27.3581 7.39757L33.1973 4.01486C33.4792 3.85378 33.8618 3.95446 34.0228 4.23635C34.1839 4.51824 34.0832 4.90081 33.8013 5.06189L27.9621 8.4446C27.8615 8.505 27.7608 8.52514 27.6601 8.52514Z" fill="#C4EF17"/>
<path d="M15.9616 15.2704C15.7602 15.2704 15.5589 15.1697 15.4381 14.9684C15.277 14.6865 15.3777 14.3039 15.6596 14.1428L21.4988 10.7802C21.7807 10.6192 22.1632 10.7198 22.3243 11.0017C22.4854 11.2836 22.3847 11.6662 22.1028 11.8273L16.2636 15.1898C16.1831 15.2502 16.0623 15.2704 15.9616 15.2704Z" fill="#C4EF17"/>
<path d="M21.8008 11.9077C21.5994 11.9077 21.3981 11.807 21.2772 11.6057C21.1162 11.3238 21.2169 10.9412 21.4988 10.7801L27.338 7.39743C27.6198 7.23635 28.0024 7.33703 28.1635 7.61892C28.3245 7.90081 28.2239 8.28338 27.942 8.44446L22.1028 11.8272C22.0223 11.8876 21.9216 11.9077 21.8008 11.9077Z" fill="#C4EF17"/>
<path d="M6.75981 20.6061C6.55846 20.6061 6.35711 20.5054 6.2363 20.304C6.07522 20.0221 6.17589 19.6396 6.45778 19.4785L15.6797 14.1628C15.9616 14.0017 16.3441 14.1024 16.5052 14.3843C16.6663 14.6662 16.5656 15.0488 16.2837 15.2098L7.06184 20.5255C6.96116 20.5658 6.86049 20.6061 6.75981 20.6061Z" fill="#C4EF17"/>
<path d="M12.599 23.9889C12.3977 23.9889 12.1963 23.8882 12.0755 23.6868C11.9145 23.405 12.0151 23.0224 12.297 22.8613L21.5189 17.5456C21.8008 17.3845 22.1834 17.4852 22.3445 17.7671C22.5055 18.049 22.4048 18.4316 22.123 18.5927L12.9011 23.9083C12.8004 23.9486 12.6997 23.9889 12.599 23.9889Z" fill="#C4EF17"/>
<path d="M21.8209 18.653C21.6195 18.653 21.4182 18.5523 21.2974 18.3509C21.1363 18.069 21.237 17.6865 21.5189 17.5254L27.3581 14.1628C27.6399 14.0017 28.0225 14.1024 28.1836 14.3843C28.3447 14.6662 28.244 15.0488 27.9621 15.2098L22.1229 18.5724C22.0222 18.6328 21.9216 18.653 21.8209 18.653Z" fill="#C4EF17"/>
<path d="M33.4993 11.9077C33.2979 11.9077 33.0966 11.807 32.9758 11.6057C32.8147 11.3238 32.9154 10.9412 33.1973 10.7801L39.0365 7.39743C39.3184 7.23635 39.7009 7.33703 39.862 7.61892C40.0231 7.90081 39.9224 8.28338 39.6405 8.44446L33.8013 11.8272C33.7006 11.8876 33.6 11.9077 33.4993 11.9077Z" fill="#C4EF17"/>
<path d="M27.6601 15.2905C27.4588 15.2905 27.2574 15.1898 27.1366 14.9885C26.9756 14.7066 27.0762 14.324 27.3581 14.163L33.1973 10.7802C33.4792 10.6192 33.8618 10.7198 34.0228 11.0017C34.1839 11.2836 34.0832 11.6662 33.8013 11.8273L27.9621 15.21C27.8615 15.2502 27.7608 15.2905 27.6601 15.2905Z" fill="#C4EF17"/>
<path d="M6.75981 27.3514C6.55846 27.3514 6.35711 27.2508 6.2363 27.0494C6.07522 26.7675 6.17589 26.385 6.45778 26.2239L12.297 22.8613C12.5789 22.7002 12.9614 22.8009 13.1225 23.0828C13.2836 23.3647 13.1829 23.7472 12.901 23.9083L7.06184 27.2709C6.96116 27.3313 6.86049 27.3514 6.75981 27.3514Z" fill="#C4EF17"/>
<path d="M0.900514 30.7341C0.699163 30.7341 0.497792 30.6334 0.376981 30.4321C0.2159 30.1502 0.316595 29.7676 0.598487 29.6066L6.43768 26.2238C6.71957 26.0628 7.10214 26.1634 7.26322 26.4453C7.4243 26.7272 7.32363 27.1098 7.04174 27.2709L1.20254 30.6536C1.10187 30.6939 1.00119 30.7341 0.900514 30.7341Z" fill="#C4EF17"/>
<path d="M0.900514 37.4794C0.699163 37.4794 0.497792 37.3787 0.376981 37.1773C0.2159 36.8954 0.316595 36.5129 0.598487 36.3518L6.43768 32.9892C6.71957 32.8281 7.10214 32.9288 7.26322 33.2107C7.4243 33.4926 7.32363 33.8752 7.04174 34.0363L1.20254 37.3988C1.122 37.4391 1.00119 37.4794 0.900514 37.4794Z" fill="#C4EF17"/>
<path d="M12.599 30.7341C12.3977 30.7341 12.1963 30.6334 12.0755 30.4321C11.9145 30.1502 12.0151 29.7676 12.297 29.6066L18.1362 26.2238C18.4181 26.0628 18.8007 26.1634 18.9617 26.4453C19.1228 26.7272 19.0221 27.1098 18.7402 27.2709L12.9011 30.6536C12.8004 30.6939 12.6997 30.7341 12.599 30.7341Z" fill="#C4EF17"/>
<path d="M27.6601 22.0356C27.4588 22.0356 27.2574 21.935 27.1366 21.7336C26.9756 21.4517 27.0762 21.0691 27.3581 20.9081L33.1973 17.5254C33.4792 17.3643 33.8618 17.465 34.0228 17.7468C34.1839 18.0287 34.0832 18.4113 33.8013 18.5724L27.9621 21.9551C27.8615 21.9954 27.7608 22.0356 27.6601 22.0356Z" fill="#C4EF17"/>
<path d="M39.3385 15.2905C39.1371 15.2905 38.9358 15.1898 38.815 14.9885C38.6539 14.7066 38.7545 14.324 39.0364 14.163L44.8756 10.7802C45.1575 10.6192 45.5401 10.7198 45.7012 11.0017C45.8623 11.2836 45.7616 11.6662 45.4797 11.8273L39.6405 15.21C39.56 15.2502 39.4593 15.2905 39.3385 15.2905Z" fill="#C4EF17"/>
<path d="M18.4382 27.3514C18.2368 27.3514 18.0355 27.2507 17.9147 27.0494C17.7536 26.7675 17.8543 26.3849 18.1362 26.2239L27.3581 20.9082C27.64 20.7471 28.0226 20.8478 28.1836 21.1297C28.3447 21.4116 28.244 21.7941 27.9621 21.9552L18.7402 27.2709C18.6395 27.3313 18.5389 27.3514 18.4382 27.3514Z" fill="#C4EF17"/>
<path d="M33.4993 18.6531C33.2979 18.6531 33.0966 18.5524 32.9758 18.351C32.8147 18.0691 32.9154 17.6866 33.1973 17.5255L39.0365 14.1428C39.3184 13.9817 39.7009 14.0824 39.862 14.3643C40.0231 14.6462 39.9224 15.0287 39.6405 15.1898L33.8013 18.5725C33.7006 18.6329 33.6 18.6531 33.4993 18.6531Z" fill="#C4EF17"/>
<path d="M6.75981 34.0967C6.55846 34.0967 6.35711 33.996 6.2363 33.7946C6.07522 33.5128 6.17589 33.1302 6.45778 32.9691L12.297 29.5864C12.5789 29.4253 12.9614 29.526 13.1225 29.8079C13.2836 30.0898 13.1829 30.4723 12.901 30.6334L7.06184 34.0161C6.96116 34.0765 6.86049 34.0967 6.75981 34.0967Z" fill="#C4EF17"/>
</svg>
