<svg width="51" height="52" viewBox="0 0 51 52" fill="none" xmlns="http://www.w3.org/2000/svg">
<path d="M23.1958 44.9234C23.1775 44.9234 23.1408 44.9234 23.1224 44.9234C13.5974 43.6938 6.4032 35.5269 6.4032 25.9102C6.4032 16.2934 13.5974 8.1265 23.1224 6.89687C23.416 6.86017 23.6913 7.06204 23.7464 7.37404C23.7831 7.66768 23.5812 7.94297 23.2692 7.99803C14.2948 9.15424 7.5227 16.8623 7.5227 25.9102C7.5227 34.9763 14.2948 42.6661 23.2692 43.8223C23.5629 43.859 23.7831 44.1343 23.7464 44.4463C23.7097 44.7216 23.4711 44.9234 23.1958 44.9234Z" fill="#C4EF17"/>
<path d="M28.0042 44.9234C27.7289 44.9234 27.4903 44.7215 27.4536 44.4462C27.4169 44.1526 27.6188 43.8773 27.9308 43.8222C36.9052 42.666 43.6773 34.9579 43.6773 25.9101C43.6773 16.8439 36.9052 9.15419 27.9308 7.99798C27.6371 7.96127 27.4169 7.68598 27.4536 7.37399C27.4903 7.08035 27.7656 6.86012 28.0776 6.89682C37.6026 8.12645 44.7968 16.2933 44.7968 25.9101C44.7968 35.5269 37.6026 43.6938 28.0776 44.9234C28.0409 44.9234 28.0225 44.9234 28.0042 44.9234Z" fill="#C4EF17"/>
<path d="M28.0042 51.1816C27.7289 51.1816 27.4903 50.9614 27.4536 50.6861C27.4169 50.3925 27.6372 50.1172 27.9492 50.0805C40.4656 48.8692 49.8989 38.4816 49.8989 25.8918C49.8989 13.3019 40.4656 2.91431 27.9492 1.70304C27.6555 1.66633 27.4169 1.40941 27.4536 1.09742C27.4903 0.803775 27.7473 0.565178 28.0593 0.601883C34.3175 1.20752 40.0986 4.10723 44.3564 8.75044C48.6325 13.4303 51 19.5234 51 25.8734C51 32.2234 48.6325 38.3165 44.3564 42.9964C40.0986 47.6579 34.3175 50.5576 28.0593 51.1449C28.0409 51.1816 28.0226 51.1816 28.0042 51.1816Z" fill="#C4EF17"/>
<path d="M23.1958 51.1815C23.1775 51.1815 23.1591 51.1815 23.1407 51.1815C16.8825 50.5759 11.1015 47.6946 6.84366 43.033C2.56751 38.3531 0.200012 32.26 0.200012 25.91C0.200012 19.56 2.56751 13.467 6.84366 8.78705C11.1015 4.12549 16.8825 1.2258 23.1407 0.638517C23.4344 0.601812 23.7097 0.822034 23.7464 1.13403C23.7831 1.42767 23.5445 1.70297 23.2509 1.73967C10.7344 2.93259 1.30117 13.3385 1.30117 25.9284C1.30117 38.5182 10.7344 48.9058 23.2509 50.1171C23.5445 50.1538 23.7831 50.4107 23.7464 50.7227C23.7097 50.9797 23.4711 51.1815 23.1958 51.1815Z" fill="#C4EF17"/>
<path d="M23.1958 38.6467C23.1591 38.6467 23.1224 38.6467 23.0857 38.6284C17.0294 37.4355 12.6248 32.0948 12.6248 25.8917C12.6248 19.6885 17.0294 14.3479 23.0857 13.155C23.3794 13.0999 23.673 13.2834 23.7281 13.5954C23.7831 13.9074 23.5996 14.1827 23.2876 14.2378C17.7451 15.3206 13.7076 20.2207 13.7076 25.8917C13.7076 31.5626 17.7268 36.4628 23.2876 37.5456C23.5812 37.6006 23.7831 37.8943 23.7281 38.1879C23.673 38.4632 23.4528 38.6467 23.1958 38.6467Z" fill="#C4EF17"/>
<path d="M28.0042 38.6468C27.7473 38.6468 27.5087 38.4632 27.472 38.2063C27.4169 37.9127 27.6004 37.619 27.9124 37.564C33.4549 36.4812 37.4925 31.581 37.4925 25.9101C37.4925 20.2575 33.4733 15.3573 27.9124 14.2562C27.6188 14.2011 27.4169 13.9075 27.472 13.6138C27.527 13.3202 27.8207 13.1183 28.1143 13.1734C34.1707 14.3663 38.5753 19.7069 38.5753 25.9101C38.5753 32.0949 34.1707 37.4539 28.1143 38.6468C28.0776 38.6468 28.0409 38.6468 28.0042 38.6468Z" fill="#C4EF17"/>
<path d="M25.6 32.664C24.7008 32.664 23.8198 32.4804 22.9756 32.1317C22.7003 32.0216 22.5718 31.6913 22.682 31.416C22.7921 31.1407 23.1224 31.0122 23.3977 31.1223C24.0951 31.416 24.8292 31.5628 25.5817 31.5628C26.3341 31.5628 27.0682 31.416 27.7656 31.1223C28.0409 31.0122 28.3713 31.1407 28.4814 31.416C28.5915 31.6913 28.463 32.0216 28.1877 32.1317C27.3802 32.4988 26.4993 32.664 25.6 32.664Z" fill="#C4EF17"/>
<path d="M28.0042 32.1866C27.7839 32.1866 27.5821 32.0582 27.4903 31.8563C27.3802 31.581 27.5087 31.2507 27.784 31.1406C29.8945 30.2596 31.2526 28.2041 31.2526 25.9101C31.2526 23.6343 29.8945 21.5789 27.784 20.6796C27.5087 20.5695 27.3802 20.2391 27.4903 19.9638C27.6004 19.6885 27.9308 19.5601 28.2061 19.6702C30.7204 20.7346 32.3538 23.1755 32.3538 25.9101C32.3538 28.6446 30.7204 31.0855 28.2061 32.1499C28.151 32.1683 28.0776 32.1866 28.0042 32.1866Z" fill="#C4EF17"/>
<path d="M23.1958 32.1866C23.1224 32.1866 23.049 32.1683 22.9756 32.1499C20.4613 31.0855 18.8279 28.6446 18.8279 25.9101C18.8279 23.1755 20.4613 20.7346 22.9756 19.6702C23.2509 19.5601 23.5812 19.6885 23.6913 19.9638C23.8014 20.2391 23.673 20.5695 23.3977 20.6796C21.2871 21.5605 19.929 23.616 19.929 25.9101C19.929 28.2041 21.2871 30.2413 23.3977 31.1406C23.673 31.2507 23.8014 31.581 23.6913 31.8563C23.6179 32.0582 23.3977 32.1866 23.1958 32.1866Z" fill="#C4EF17"/>
<path d="M23.1958 51.1817C22.8838 51.1817 22.6453 50.9431 22.6453 50.6311V44.3728C22.6453 44.0608 22.8838 43.8223 23.1958 43.8223C23.5078 43.8223 23.7464 44.0608 23.7464 44.3728V50.6311C23.7464 50.9431 23.4895 51.1817 23.1958 51.1817Z" fill="#C4EF17"/>
<path d="M23.1958 14.2561C22.8838 14.2561 22.6453 14.0176 22.6453 13.7056V7.429C22.6453 7.117 22.8838 6.87842 23.1958 6.87842C23.5078 6.87842 23.7464 7.117 23.7464 7.429V13.7056C23.7464 14.0176 23.4895 14.2561 23.1958 14.2561Z" fill="#C4EF17"/>
<path d="M28.0042 44.9234C27.6922 44.9234 27.4536 44.6848 27.4536 44.3728V38.0962C27.4536 37.7842 27.6922 37.5457 28.0042 37.5457C28.3162 37.5457 28.5548 37.7842 28.5548 38.0962V44.3728C28.5548 44.6665 28.2978 44.9234 28.0042 44.9234Z" fill="#C4EF17"/>
<path d="M28.0042 7.97952C27.6922 7.97952 27.4536 7.74094 27.4536 7.42895V1.17069C27.4536 0.858701 27.6922 0.620117 28.0042 0.620117C28.3162 0.620117 28.5548 0.858701 28.5548 1.17069V7.42895C28.5548 7.74094 28.2978 7.97952 28.0042 7.97952Z" fill="#C4EF17"/>
<path d="M28.0042 20.7163C27.6922 20.7163 27.4536 20.4777 27.4536 20.1657V13.7056C27.4536 13.3936 27.6922 13.155 28.0042 13.155C28.3162 13.155 28.5548 13.3936 28.5548 13.7056V20.1657C28.5548 20.4777 28.2978 20.7163 28.0042 20.7163Z" fill="#C4EF17"/>
</svg>
