<svg width="53" height="54" viewBox="0 0 53 54" fill="none" xmlns="http://www.w3.org/2000/svg">
<path d="M13.6813 53.8375C6.2563 53.8375 0.200073 47.8 0.200073 40.3563C0.200073 32.9313 6.23755 26.8938 13.6813 26.8938C14 26.8938 14.2438 27.1375 14.2438 27.4563C14.2438 27.775 14 28.0188 13.6813 28.0188C6.87505 28.0188 1.32507 33.55 1.32507 40.3563C1.32507 47.1625 6.8563 52.7125 13.6813 52.7125C20.4875 52.7125 26.0375 47.1625 26.0375 40.3563C26.0375 40.0375 26.2813 39.7938 26.6 39.7938C26.9188 39.7938 27.1625 40.0375 27.1625 40.3563C27.1625 47.8 21.1063 53.8375 13.6813 53.8375Z" fill="#C4EF17"/>
<path d="M13.6813 48.5315C9.18127 48.5315 5.52502 44.8752 5.52502 40.3752C5.52502 35.8752 9.18127 32.219 13.6813 32.219C14 32.219 14.2438 32.4627 14.2438 32.7815C14.2438 33.1002 14 33.344 13.6813 33.344C9.80002 33.344 6.65002 36.494 6.65002 40.3752C6.65002 44.2565 9.80002 47.4065 13.6813 47.4065C17.5625 47.4065 20.7125 44.2565 20.7125 40.3752C20.7125 40.0565 20.9563 39.8127 21.275 39.8127C21.5938 39.8127 21.8375 40.0565 21.8375 40.3752C21.8375 44.8752 18.1813 48.5315 13.6813 48.5315Z" fill="#C4EF17"/>
<path d="M13.6813 43.2064C12.1063 43.2064 10.8313 41.9314 10.8313 40.3564C10.8313 38.8001 12.1063 37.5251 13.6813 37.5251C14 37.5251 14.2438 37.7689 14.2438 38.0876C14.2438 38.4064 14 38.6501 13.6813 38.6501C12.7438 38.6501 11.9563 39.4189 11.9563 40.3564C11.9563 41.3126 12.725 42.0814 13.6813 42.0814C14.6188 42.0814 15.4063 41.3126 15.4063 40.3564C15.4063 40.0376 15.65 39.7939 15.9688 39.7939C16.2875 39.7939 16.5313 40.0376 16.5313 40.3564C16.5125 41.9314 15.2375 43.2064 13.6813 43.2064Z" fill="#C4EF17"/>
<path d="M15.9688 27.9813C15.6501 27.9813 15.4063 27.7376 15.4063 27.4188V27.3813C15.4063 27.0626 15.6501 26.8188 15.9688 26.8188C16.2876 26.8188 16.5313 27.0626 16.5313 27.3813V27.4188C16.5313 27.7188 16.2688 27.9813 15.9688 27.9813Z" fill="#C4EF17"/>
<path d="M15.9688 28.0189C15.6501 28.0189 15.4063 27.7752 15.4063 27.4564V27.4189C15.4063 27.1002 15.6501 26.8564 15.9688 26.8564C16.2876 26.8564 16.5313 27.1002 16.5313 27.4189V27.4564C16.5313 27.7564 16.2688 28.0189 15.9688 28.0189Z" fill="#C4EF17"/>
<path d="M15.9688 38.6502C15.6501 38.6502 15.4063 38.4064 15.4063 38.0877V32.7627C15.4063 32.4439 15.6501 32.2002 15.9688 32.2002C16.2876 32.2002 16.5313 32.4439 16.5313 32.7627V38.0877C16.5313 38.4064 16.2688 38.6502 15.9688 38.6502Z" fill="#C4EF17"/>
<path d="M15.9688 40.9376C15.6501 40.9376 15.4063 40.6939 15.4063 40.3751V38.0876C15.4063 37.7689 15.6501 37.5251 15.9688 37.5251C16.2876 37.5251 16.5313 37.7689 16.5313 38.0876V40.3751C16.5313 40.6751 16.2688 40.9376 15.9688 40.9376Z" fill="#C4EF17"/>
<path d="M15.9688 33.3252C15.6501 33.3252 15.4063 33.0815 15.4063 32.7627V27.4377C15.4063 27.119 15.6501 26.8752 15.9688 26.8752C16.2876 26.8752 16.5313 27.119 16.5313 27.4377V32.7627C16.5313 33.0815 16.2688 33.3252 15.9688 33.3252Z" fill="#C4EF17"/>
<path d="M21.275 28.0189C20.9563 28.0189 20.7125 27.7752 20.7125 27.4564V27.4189C20.7125 27.1002 20.9563 26.8564 21.275 26.8564C21.5938 26.8564 21.8375 27.1002 21.8375 27.4189V27.4564C21.8375 27.7564 21.5938 28.0189 21.275 28.0189Z" fill="#C4EF17"/>
<path d="M21.275 40.9376C20.9563 40.9376 20.7125 40.6939 20.7125 40.3751V38.0876C20.7125 37.7689 20.9563 37.5251 21.275 37.5251C21.5938 37.5251 21.8375 37.7689 21.8375 38.0876V40.3751C21.8375 40.6751 21.5938 40.9376 21.275 40.9376Z" fill="#C4EF17"/>
<path d="M21.275 33.3252C20.9563 33.3252 20.7125 33.0815 20.7125 32.7627V27.4377C20.7125 27.119 20.9563 26.8752 21.275 26.8752C21.5938 26.8752 21.8375 27.119 21.8375 27.4377V32.7627C21.8375 33.0815 21.5938 33.3252 21.275 33.3252Z" fill="#C4EF17"/>
<path d="M21.275 27.9813C20.9563 27.9813 20.7125 27.7376 20.7125 27.4188V27.3813C20.7125 27.0626 20.9563 26.8188 21.275 26.8188C21.5938 26.8188 21.8375 27.0626 21.8375 27.3813V27.4188C21.8375 27.7188 21.5938 27.9813 21.275 27.9813Z" fill="#C4EF17"/>
<path d="M21.275 38.6502C20.9563 38.6502 20.7125 38.4064 20.7125 38.0877V32.7627C20.7125 32.4439 20.9563 32.2002 21.275 32.2002C21.5938 32.2002 21.8375 32.4439 21.8375 32.7627V38.0877C21.8375 38.4064 21.5938 38.6502 21.275 38.6502Z" fill="#C4EF17"/>
<path d="M26.6 27.9813C26.2813 27.9813 26.0375 27.7376 26.0375 27.4188V27.3813C26.0375 27.0626 26.2813 26.8188 26.6 26.8188C26.9188 26.8188 27.1625 27.0626 27.1625 27.3813V27.4188C27.1625 27.7188 26.9 27.9813 26.6 27.9813Z" fill="#C4EF17"/>
<path d="M26.6 33.3252C26.2813 33.3252 26.0375 33.0815 26.0375 32.7627V27.4377C26.0375 27.119 26.2813 26.8752 26.6 26.8752C26.9188 26.8752 27.1625 27.119 27.1625 27.4377V32.7627C27.1625 33.0815 26.9 33.3252 26.6 33.3252Z" fill="#C4EF17"/>
<path d="M26.6 38.6502C26.2813 38.6502 26.0375 38.4064 26.0375 38.0877V32.7627C26.0375 32.4439 26.2813 32.2002 26.6 32.2002C26.9188 32.2002 27.1625 32.4439 27.1625 32.7627V38.0877C27.1625 38.4064 26.9 38.6502 26.6 38.6502Z" fill="#C4EF17"/>
<path d="M26.6 28.0189C26.2813 28.0189 26.0375 27.7752 26.0375 27.4564V27.4189C26.0375 27.1002 26.2813 26.8564 26.6 26.8564C26.9188 26.8564 27.1625 27.1002 27.1625 27.4189V27.4564C27.1625 27.7564 26.9 28.0189 26.6 28.0189Z" fill="#C4EF17"/>
<path d="M26.6 40.9376C26.2813 40.9376 26.0375 40.6939 26.0375 40.3751V38.0876C26.0375 37.7689 26.2813 37.5251 26.6 37.5251C26.9188 37.5251 27.1625 37.7689 27.1625 38.0876V40.3751C27.1625 40.6751 26.9 40.9376 26.6 40.9376Z" fill="#C4EF17"/>
<path d="M15.9688 38.6501H13.6813C13.3625 38.6501 13.1188 38.4064 13.1188 38.0876C13.1188 37.7689 13.3625 37.5251 13.6813 37.5251H15.9688C16.2875 37.5251 16.5313 37.7689 16.5313 38.0876C16.5313 38.4064 16.2688 38.6501 15.9688 38.6501Z" fill="#C4EF17"/>
<path d="M15.95 33.3252H13.6625C13.3438 33.3252 13.1 33.0814 13.1 32.7627C13.1 32.4439 13.3438 32.2002 13.6625 32.2002H15.95C16.2688 32.2002 16.5125 32.4439 16.5125 32.7627C16.5125 33.0814 16.2688 33.3252 15.95 33.3252Z" fill="#C4EF17"/>
<path d="M26.6 33.325C26.45 33.325 26.3 33.2688 26.2063 33.1563C26.0938 33.0438 26.0375 32.9125 26.0375 32.7625C26.0375 32.6125 26.0938 32.4625 26.2063 32.3688C26.4125 32.1625 26.7875 32.1625 27.0125 32.3688C27.125 32.4813 27.1813 32.6125 27.1813 32.7625C27.1813 32.9125 27.125 33.0625 27.0125 33.1563C26.8813 33.2688 26.75 33.325 26.6 33.325Z" fill="#C4EF17"/>
<path d="M21.275 33.325C21.125 33.325 20.975 33.2688 20.8813 33.1563C20.7688 33.0438 20.7125 32.9125 20.7125 32.7625C20.7125 32.6125 20.7688 32.4625 20.8813 32.3688C21.0875 32.1625 21.4625 32.1625 21.6688 32.3688C21.7813 32.4813 21.8375 32.6125 21.8375 32.7625C21.8375 32.9125 21.7813 33.0625 21.6688 33.1563C21.575 33.2688 21.425 33.325 21.275 33.325Z" fill="#C4EF17"/>
<path d="M15.9688 33.3252C15.6501 33.3252 15.4063 33.0814 15.4063 32.7627C15.4063 32.4439 15.6501 32.2002 15.9688 32.2002C16.2876 32.2002 16.5313 32.4439 16.5313 32.7627C16.5313 33.0814 16.2688 33.3252 15.9688 33.3252Z" fill="#C4EF17"/>
<path d="M21.275 28.0189C21.125 28.0189 20.975 27.9626 20.8813 27.8501C20.7688 27.7376 20.7125 27.6064 20.7125 27.4564C20.7125 27.3064 20.7688 27.1564 20.8813 27.0626C21.0875 26.8564 21.4625 26.8564 21.6688 27.0626C21.7813 27.1751 21.8375 27.3064 21.8375 27.4564C21.8375 27.6064 21.7813 27.7564 21.6688 27.8501C21.575 27.9626 21.425 28.0189 21.275 28.0189Z" fill="#C4EF17"/>
<path d="M15.9688 28.0188C15.6501 28.0188 15.4063 27.775 15.4063 27.4563C15.4063 27.1375 15.6501 26.8938 15.9688 26.8938H21.2938C21.6126 26.8938 21.8563 27.1375 21.8563 27.4563C21.8563 27.775 21.6126 28.0188 21.2938 28.0188H15.9688Z" fill="#C4EF17"/>
<path d="M26.6 28.0188H21.275C20.9563 28.0188 20.7125 27.775 20.7125 27.4563C20.7125 27.1375 20.9563 26.8938 21.275 26.8938H26.6C26.9188 26.8938 27.1625 27.1375 27.1625 27.4563C27.1625 27.7563 26.9 28.0188 26.6 28.0188Z" fill="#C4EF17"/>
<path d="M26.6 28.0189C26.45 28.0189 26.3 27.9626 26.2063 27.8501C26.0938 27.7376 26.0375 27.6064 26.0375 27.4564C26.0375 27.3064 26.0938 27.1564 26.2063 27.0626C26.4125 26.8564 26.7875 26.8564 27.0125 27.0626C27.125 27.1751 27.1813 27.3064 27.1813 27.4564C27.1813 27.6064 27.125 27.7564 27.0125 27.8501C26.8813 27.9626 26.75 28.0189 26.6 28.0189Z" fill="#C4EF17"/>
<path d="M15.9688 28.0188H13.6813C13.3625 28.0188 13.1188 27.775 13.1188 27.4563C13.1188 27.1375 13.3625 26.8938 13.6813 26.8938H15.9688C16.2875 26.8938 16.5313 27.1375 16.5313 27.4563C16.5313 27.7563 16.2688 28.0188 15.9688 28.0188Z" fill="#C4EF17"/>
<path d="M15.9688 28.0189C15.8188 28.0189 15.6688 27.9626 15.5751 27.8501C15.4626 27.7376 15.4063 27.6064 15.4063 27.4564C15.4063 27.3064 15.4626 27.1564 15.5751 27.0626C15.7813 26.8564 16.1563 26.8564 16.3626 27.0626C16.4751 27.1751 16.5313 27.3064 16.5313 27.4564C16.5313 27.6064 16.4751 27.7564 16.3626 27.8501C16.2501 27.9626 16.1188 28.0189 15.9688 28.0189Z" fill="#C4EF17"/>
<path d="M13.6813 27.9251C6.2563 27.9251 0.200073 21.8876 0.200073 14.4439C0.200073 7.01889 6.23755 0.962646 13.6813 0.962646C21.1063 0.962646 27.1625 7.00014 27.1625 14.4439C27.1625 14.7626 26.9188 15.0064 26.6 15.0064C26.2813 15.0064 26.0375 14.7626 26.0375 14.4439C26.0375 7.63764 20.4875 2.08764 13.6813 2.08764C6.87505 2.08764 1.32507 7.61889 1.32507 14.4439C1.32507 21.2501 6.8563 26.8001 13.6813 26.8001C14 26.8001 14.2438 27.0439 14.2438 27.3626C14.2438 27.6814 13.9813 27.9251 13.6813 27.9251Z" fill="#C4EF17"/>
<path d="M13.6813 22.6189C9.18127 22.6189 5.52502 18.9626 5.52502 14.4626C5.52502 9.96264 9.18127 6.3064 13.6813 6.3064C18.1813 6.3064 21.8375 9.96264 21.8375 14.4626C21.8375 14.7814 21.5938 15.0251 21.275 15.0251C20.9563 15.0251 20.7125 14.7814 20.7125 14.4626C20.7125 10.5814 17.5625 7.4314 13.6813 7.4314C9.80002 7.4314 6.65002 10.5814 6.65002 14.4626C6.65002 18.3439 9.80002 21.4939 13.6813 21.4939C14 21.4939 14.2438 21.7376 14.2438 22.0564C14.2438 22.3564 13.9813 22.6189 13.6813 22.6189Z" fill="#C4EF17"/>
<path d="M13.6813 17.294C12.1063 17.294 10.8313 16.019 10.8313 14.444C10.8313 12.869 12.1063 11.6128 13.6813 11.6128C15.2563 11.6128 16.5313 12.8878 16.5313 14.444C16.5313 14.7628 16.2875 15.0065 15.9688 15.0065C15.65 15.0065 15.4063 14.7628 15.4063 14.444C15.4063 13.5065 14.6375 12.7378 13.6813 12.7378C12.7438 12.7378 11.9563 13.5065 11.9563 14.444C11.9563 15.3815 12.725 16.169 13.6813 16.169C14 16.169 14.2438 16.4128 14.2438 16.7315C14.2438 17.0503 13.9813 17.294 13.6813 17.294Z" fill="#C4EF17"/>
<path d="M15.9688 27.9813C15.6501 27.9813 15.4063 27.7376 15.4063 27.4188V27.3813C15.4063 27.0626 15.6501 26.8188 15.9688 26.8188C16.2876 26.8188 16.5313 27.0626 16.5313 27.3813V27.4188C16.5313 27.7188 16.2688 27.9813 15.9688 27.9813Z" fill="#C4EF17"/>
<path d="M15.9688 28.0189C15.6501 28.0189 15.4063 27.7752 15.4063 27.4564V27.4189C15.4063 27.1002 15.6501 26.8564 15.9688 26.8564C16.2876 26.8564 16.5313 27.1002 16.5313 27.4189V27.4564C16.5313 27.7564 16.2688 28.0189 15.9688 28.0189Z" fill="#C4EF17"/>
<path d="M15.9501 34.5252C15.6313 34.5252 15.3876 34.2814 15.3876 33.9627V32.7627C15.3876 32.4439 15.6313 32.2002 15.9501 32.2002C16.2688 32.2002 16.5126 32.4439 16.5126 32.7627V33.9627C16.5126 34.2814 16.2688 34.5252 15.9501 34.5252Z" fill="#C4EF17"/>
<path d="M15.9501 33.3252C15.6313 33.3252 15.3876 33.0815 15.3876 32.7627V27.4377C15.3876 27.119 15.6313 26.8752 15.9501 26.8752C16.2688 26.8752 16.5126 27.119 16.5126 27.4377V32.7627C16.5126 33.0815 16.2688 33.3252 15.9501 33.3252Z" fill="#C4EF17"/>
<path d="M15.9688 17.2939C15.6501 17.2939 15.4063 17.0501 15.4063 16.7314V14.4626C15.4063 14.1439 15.6501 13.9001 15.9688 13.9001C16.2876 13.9001 16.5313 14.1439 16.5313 14.4626V16.7501C16.5313 17.0501 16.2688 17.2939 15.9688 17.2939Z" fill="#C4EF17"/>
<path d="M21.275 28.0189C20.9563 28.0189 20.7125 27.7752 20.7125 27.4564V27.4189C20.7125 27.1002 20.9563 26.8564 21.275 26.8564C21.5938 26.8564 21.8375 27.1002 21.8375 27.4189V27.4564C21.8375 27.7564 21.5938 28.0189 21.275 28.0189Z" fill="#C4EF17"/>
<path d="M21.275 27.9813C20.9563 27.9813 20.7125 27.7376 20.7125 27.4188V27.3813C20.7125 27.0626 20.9563 26.8188 21.275 26.8188C21.5938 26.8188 21.8375 27.0626 21.8375 27.3813V27.4188C21.8375 27.7188 21.5938 27.9813 21.275 27.9813Z" fill="#C4EF17"/>
<path d="M21.275 34.5252C20.9563 34.5252 20.7125 34.2814 20.7125 33.9627V32.7627C20.7125 32.4439 20.9563 32.2002 21.275 32.2002C21.5938 32.2002 21.8375 32.4439 21.8375 32.7627V33.9627C21.8375 34.2814 21.5938 34.5252 21.275 34.5252Z" fill="#C4EF17"/>
<path d="M21.275 33.3252C20.9563 33.3252 20.7125 33.0815 20.7125 32.7627V27.4377C20.7125 27.119 20.9563 26.8752 21.275 26.8752C21.5938 26.8752 21.8375 27.119 21.8375 27.4377V32.7627C21.8375 33.0815 21.5938 33.3252 21.275 33.3252Z" fill="#C4EF17"/>
<path d="M21.275 17.2939C20.9563 17.2939 20.7125 17.0501 20.7125 16.7314V14.4626C20.7125 14.1439 20.9563 13.9001 21.275 13.9001C21.5938 13.9001 21.8375 14.1439 21.8375 14.4626V16.7501C21.8375 17.0501 21.5938 17.2939 21.275 17.2939Z" fill="#C4EF17"/>
<path d="M26.6 27.9813C26.2813 27.9813 26.0375 27.7376 26.0375 27.4188V27.3813C26.0375 27.0626 26.2813 26.8188 26.6 26.8188C26.9188 26.8188 27.1625 27.0626 27.1625 27.3813V27.4188C27.1625 27.7188 26.9 27.9813 26.6 27.9813Z" fill="#C4EF17"/>
<path d="M26.6 34.5252C26.2813 34.5252 26.0375 34.2814 26.0375 33.9627V32.7627C26.0375 32.4439 26.2813 32.2002 26.6 32.2002C26.9188 32.2002 27.1625 32.4439 27.1625 32.7627V33.9627C27.1625 34.2814 26.9 34.5252 26.6 34.5252Z" fill="#C4EF17"/>
<path d="M26.6 28.0189C26.2813 28.0189 26.0375 27.7752 26.0375 27.4564V27.4189C26.0375 27.1002 26.2813 26.8564 26.6 26.8564C26.9188 26.8564 27.1625 27.1002 27.1625 27.4189V27.4564C27.1625 27.7564 26.9 28.0189 26.6 28.0189Z" fill="#C4EF17"/>
<path d="M26.6 33.3252C26.2813 33.3252 26.0375 33.0815 26.0375 32.7627V27.4377C26.0375 27.119 26.2813 26.8752 26.6 26.8752C26.9188 26.8752 27.1625 27.119 27.1625 27.4377V32.7627C27.1625 33.0815 26.9 33.3252 26.6 33.3252Z" fill="#C4EF17"/>
<path d="M26.6 17.2939C26.2813 17.2939 26.0375 17.0501 26.0375 16.7314V14.4626C26.0375 14.1439 26.2813 13.9001 26.6 13.9001C26.9188 13.9001 27.1625 14.1439 27.1625 14.4626V16.7501C27.1625 17.0501 26.9 17.2939 26.6 17.2939Z" fill="#C4EF17"/>
<path d="M21.275 17.2939H15.9501C15.6313 17.2939 15.3876 17.0502 15.3876 16.7314C15.3876 16.4127 15.6313 16.1689 15.9501 16.1689H21.275C21.5938 16.1689 21.8375 16.4127 21.8375 16.7314C21.8375 17.0502 21.5938 17.2939 21.275 17.2939Z" fill="#C4EF17"/>
<path d="M15.9688 17.2939H13.6813C13.3625 17.2939 13.1188 17.0502 13.1188 16.7314C13.1188 16.4127 13.3625 16.1689 13.6813 16.1689H15.9688C16.2875 16.1689 16.5313 16.4127 16.5313 16.7314C16.5313 17.0502 16.2688 17.2939 15.9688 17.2939Z" fill="#C4EF17"/>
<path d="M26.6 17.2939H21.275C20.9563 17.2939 20.7125 17.0502 20.7125 16.7314C20.7125 16.4127 20.9563 16.1689 21.275 16.1689H26.6C26.9188 16.1689 27.1625 16.4127 27.1625 16.7314C27.1625 17.0502 26.9 17.2939 26.6 17.2939Z" fill="#C4EF17"/>
<path d="M26.6 22.619C26.45 22.619 26.3 22.5627 26.2063 22.4502C26.0938 22.3377 26.0375 22.2065 26.0375 22.0565C26.0375 21.9065 26.0938 21.7565 26.2063 21.6627C26.4125 21.4565 26.7875 21.4565 27.0125 21.6627C27.125 21.7752 27.1813 21.9065 27.1813 22.0565C27.1813 22.2065 27.125 22.3565 27.0125 22.4502C26.8813 22.5627 26.75 22.619 26.6 22.619Z" fill="#C4EF17"/>
<path d="M21.275 22.6189H15.9501C15.6313 22.6189 15.3876 22.3751 15.3876 22.0564C15.3876 21.7376 15.6313 21.4939 15.9501 21.4939H21.275C21.5938 21.4939 21.8375 21.7376 21.8375 22.0564C21.8375 22.3751 21.5938 22.6189 21.275 22.6189Z" fill="#C4EF17"/>
<path d="M26.6 22.6189H21.275C20.9563 22.6189 20.7125 22.3751 20.7125 22.0564C20.7125 21.7376 20.9563 21.4939 21.275 21.4939H26.6C26.9188 21.4939 27.1625 21.7376 27.1625 22.0564C27.1625 22.3751 26.9 22.6189 26.6 22.6189Z" fill="#C4EF17"/>
<path d="M15.9688 22.6189C15.6501 22.6189 15.4063 22.3751 15.4063 22.0564C15.4063 21.7376 15.6501 21.4939 15.9688 21.4939C16.2876 21.4939 16.5313 21.7376 16.5313 22.0564C16.5313 22.3751 16.2688 22.6189 15.9688 22.6189Z" fill="#C4EF17"/>
<path d="M15.95 22.6189H13.6625C13.3438 22.6189 13.1 22.3751 13.1 22.0564C13.1 21.7376 13.3438 21.4939 13.6625 21.4939H15.95C16.2688 21.4939 16.5125 21.7376 16.5125 22.0564C16.5125 22.3751 16.2688 22.6189 15.95 22.6189Z" fill="#C4EF17"/>
<path d="M21.275 22.619C21.125 22.619 20.975 22.5627 20.8813 22.4502C20.7688 22.3377 20.7125 22.2065 20.7125 22.0565C20.7125 21.9065 20.7688 21.7565 20.8813 21.6627C21.0875 21.4565 21.4625 21.4565 21.6688 21.6627C21.7813 21.7752 21.8375 21.9065 21.8375 22.0565C21.8375 22.2065 21.7813 22.3565 21.6688 22.4502C21.575 22.5627 21.425 22.619 21.275 22.619Z" fill="#C4EF17"/>
<path d="M15.9688 27.9438H13.6813C13.3625 27.9438 13.1188 27.7001 13.1188 27.3813C13.1188 27.0626 13.3625 26.8188 13.6813 26.8188H15.9688C16.2875 26.8188 16.5313 27.0626 16.5313 27.3813C16.5313 27.6813 16.2688 27.9438 15.9688 27.9438Z" fill="#C4EF17"/>
<path d="M21.275 27.9251C21.125 27.9251 20.975 27.8689 20.8813 27.7564C20.7688 27.6439 20.7125 27.5126 20.7125 27.3626C20.7125 27.2126 20.7688 27.0626 20.8813 26.9689C21.0875 26.7626 21.4625 26.7626 21.6688 26.9689C21.7813 27.0814 21.8375 27.2126 21.8375 27.3626C21.8375 27.5126 21.7813 27.6626 21.6688 27.7564C21.575 27.8689 21.425 27.9251 21.275 27.9251Z" fill="#C4EF17"/>
<path d="M26.6 27.9251C26.45 27.9251 26.3 27.8689 26.2063 27.7564C26.0938 27.6626 26.0375 27.5126 26.0375 27.3626C26.0375 27.2126 26.0938 27.0626 26.2063 26.9689C26.4125 26.7626 26.7875 26.7626 27.0125 26.9689C27.125 27.0814 27.1813 27.2126 27.1813 27.3626C27.1813 27.5126 27.125 27.6626 27.0125 27.7564C26.8813 27.8689 26.75 27.9251 26.6 27.9251Z" fill="#C4EF17"/>
<path d="M26.6 27.9438H21.275C20.9563 27.9438 20.7125 27.7001 20.7125 27.3813C20.7125 27.0626 20.9563 26.8188 21.275 26.8188H26.6C26.9188 26.8188 27.1625 27.0626 27.1625 27.3813C27.1625 27.6813 26.9 27.9438 26.6 27.9438Z" fill="#C4EF17"/>
<path d="M15.9688 27.9251C15.8188 27.9251 15.6688 27.8689 15.5751 27.7564C15.4626 27.6626 15.4063 27.5126 15.4063 27.3626C15.4063 27.2126 15.4626 27.0626 15.5751 26.9689C15.7813 26.7626 16.1563 26.7626 16.3626 26.9689C16.4751 27.0814 16.5313 27.2126 16.5313 27.3626C16.5313 27.5126 16.4751 27.6626 16.3626 27.7564C16.2501 27.8689 16.1188 27.9251 15.9688 27.9251Z" fill="#C4EF17"/>
<path d="M21.275 27.9438H15.9501C15.6313 27.9438 15.3876 27.7001 15.3876 27.3813C15.3876 27.0626 15.6313 26.8188 15.9501 26.8188H21.275C21.5938 26.8188 21.8375 27.0626 21.8375 27.3813C21.8375 27.6813 21.5938 27.9438 21.275 27.9438Z" fill="#C4EF17"/>
<path d="M39.5188 27.9251C39.2 27.9251 38.9563 27.6814 38.9563 27.3626C38.9563 27.0439 39.2 26.8001 39.5188 26.8001C46.325 26.8001 51.875 21.2689 51.875 14.4439C51.875 7.63764 46.325 2.08764 39.5188 2.08764C32.7125 2.08764 27.1625 7.61889 27.1625 14.4439C27.1625 14.7626 26.9188 15.0064 26.6 15.0064C26.2813 15.0064 26.0375 14.7626 26.0375 14.4439C26.0375 7.01889 32.075 0.962646 39.5188 0.962646C46.9438 0.962646 53 7.00014 53 14.4439C52.9813 21.8876 46.9438 27.9251 39.5188 27.9251Z" fill="#C4EF17"/>
<path d="M39.5188 22.6189C39.2 22.6189 38.9563 22.3751 38.9563 22.0564C38.9563 21.7376 39.2 21.4939 39.5188 21.4939C43.4 21.4939 46.55 18.3439 46.55 14.4626C46.55 10.5814 43.4 7.4314 39.5188 7.4314C35.6375 7.4314 32.4875 10.5814 32.4875 14.4626C32.4875 14.7814 32.2438 15.0251 31.925 15.0251C31.6063 15.0251 31.3625 14.7814 31.3625 14.4626C31.3625 9.96264 35.0188 6.3064 39.5188 6.3064C44.0188 6.3064 47.675 9.96264 47.675 14.4626C47.675 18.9439 44.0188 22.6189 39.5188 22.6189Z" fill="#C4EF17"/>
<path d="M39.5187 17.294C39.2 17.294 38.9562 17.0503 38.9562 16.7315C38.9562 16.4128 39.2 16.169 39.5187 16.169C40.4562 16.169 41.2437 15.4003 41.2437 14.444C41.2437 13.5065 40.475 12.7378 39.5187 12.7378C38.5812 12.7378 37.8125 13.5065 37.8125 14.444C37.8125 14.7628 37.5687 15.0065 37.25 15.0065C36.9312 15.0065 36.6875 14.7628 36.6875 14.444C36.6875 12.869 37.9625 11.6128 39.5187 11.6128C41.0937 11.6128 42.3687 12.8878 42.3687 14.444C42.35 16.019 41.075 17.294 39.5187 17.294Z" fill="#C4EF17"/>
<path d="M37.2313 28.0189C36.9125 28.0189 36.6688 27.7752 36.6688 27.4564V27.4189C36.6688 27.1002 36.9125 26.8564 37.2313 26.8564C37.55 26.8564 37.7938 27.1002 37.7938 27.4189V27.4564C37.7938 27.7564 37.55 28.0189 37.2313 28.0189Z" fill="#C4EF17"/>
<path d="M37.2313 27.9813C36.9125 27.9813 36.6688 27.7376 36.6688 27.4188V27.3813C36.6688 27.0626 36.9125 26.8188 37.2313 26.8188C37.55 26.8188 37.7938 27.0626 37.7938 27.3813V27.4188C37.7938 27.7188 37.55 27.9813 37.2313 27.9813Z" fill="#C4EF17"/>
<path d="M37.2313 22.6189C36.9125 22.6189 36.6688 22.3752 36.6688 22.0564V16.7314C36.6688 16.4127 36.9125 16.1689 37.2313 16.1689C37.55 16.1689 37.7938 16.4127 37.7938 16.7314V22.0564C37.7938 22.3564 37.55 22.6189 37.2313 22.6189Z" fill="#C4EF17"/>
<path d="M37.2313 17.2939C36.9125 17.2939 36.6688 17.0501 36.6688 16.7314V14.4626C36.6688 14.1439 36.9125 13.9001 37.2313 13.9001C37.55 13.9001 37.7938 14.1439 37.7938 14.4626V16.7501C37.7938 17.0501 37.55 17.2939 37.2313 17.2939Z" fill="#C4EF17"/>
<path d="M37.2313 27.9439C36.9125 27.9439 36.6688 27.7001 36.6688 27.3814V22.0564C36.6688 21.7376 36.9125 21.4939 37.2313 21.4939C37.55 21.4939 37.7938 21.7376 37.7938 22.0564V27.3814C37.7938 27.6814 37.55 27.9439 37.2313 27.9439Z" fill="#C4EF17"/>
<path d="M31.9062 27.9813C31.5875 27.9813 31.3438 27.7376 31.3438 27.4188V27.3813C31.3438 27.0626 31.5875 26.8188 31.9062 26.8188C32.225 26.8188 32.4687 27.0626 32.4687 27.3813V27.4188C32.4687 27.7188 32.225 27.9813 31.9062 27.9813Z" fill="#C4EF17"/>
<path d="M31.9062 17.2939C31.5875 17.2939 31.3438 17.0501 31.3438 16.7314V14.4626C31.3438 14.1439 31.5875 13.9001 31.9062 13.9001C32.225 13.9001 32.4687 14.1439 32.4687 14.4626V16.7501C32.4687 17.0501 32.225 17.2939 31.9062 17.2939Z" fill="#C4EF17"/>
<path d="M31.9062 27.9439C31.5875 27.9439 31.3438 27.7001 31.3438 27.3814V22.0564C31.3438 21.7376 31.5875 21.4939 31.9062 21.4939C32.225 21.4939 32.4687 21.7376 32.4687 22.0564V27.3814C32.4687 27.6814 32.225 27.9439 31.9062 27.9439Z" fill="#C4EF17"/>
<path d="M31.9062 28.0189C31.5875 28.0189 31.3438 27.7752 31.3438 27.4564V27.4189C31.3438 27.1002 31.5875 26.8564 31.9062 26.8564C32.225 26.8564 32.4687 27.1002 32.4687 27.4189V27.4564C32.4687 27.7564 32.225 28.0189 31.9062 28.0189Z" fill="#C4EF17"/>
<path d="M31.9062 22.6189C31.5875 22.6189 31.3438 22.3752 31.3438 22.0564V16.7314C31.3438 16.4127 31.5875 16.1689 31.9062 16.1689C32.225 16.1689 32.4687 16.4127 32.4687 16.7314V22.0564C32.4687 22.3564 32.225 22.6189 31.9062 22.6189Z" fill="#C4EF17"/>
<path d="M26.6 28.0189C26.2813 28.0189 26.0375 27.7752 26.0375 27.4564V27.4189C26.0375 27.1002 26.2813 26.8564 26.6 26.8564C26.9188 26.8564 27.1625 27.1002 27.1625 27.4189V27.4564C27.1625 27.7564 26.9 28.0189 26.6 28.0189Z" fill="#C4EF17"/>
<path d="M26.6 27.9439C26.2813 27.9439 26.0375 27.7001 26.0375 27.3814V22.0564C26.0375 21.7376 26.2813 21.4939 26.6 21.4939C26.9188 21.4939 27.1625 21.7376 27.1625 22.0564V27.3814C27.1625 27.6814 26.9 27.9439 26.6 27.9439Z" fill="#C4EF17"/>
<path d="M26.6 22.6189C26.2813 22.6189 26.0375 22.3752 26.0375 22.0564V16.7314C26.0375 16.4127 26.2813 16.1689 26.6 16.1689C26.9188 16.1689 27.1625 16.4127 27.1625 16.7314V22.0564C27.1625 22.3564 26.9 22.6189 26.6 22.6189Z" fill="#C4EF17"/>
<path d="M26.6 27.9813C26.2813 27.9813 26.0375 27.7376 26.0375 27.4188V27.3813C26.0375 27.0626 26.2813 26.8188 26.6 26.8188C26.9188 26.8188 27.1625 27.0626 27.1625 27.3813V27.4188C27.1625 27.7188 26.9 27.9813 26.6 27.9813Z" fill="#C4EF17"/>
<path d="M26.6 17.2939C26.2813 17.2939 26.0375 17.0501 26.0375 16.7314V14.4626C26.0375 14.1439 26.2813 13.9001 26.6 13.9001C26.9188 13.9001 27.1625 14.1439 27.1625 14.4626V16.7501C27.1625 17.0501 26.9 17.2939 26.6 17.2939Z" fill="#C4EF17"/>
<path d="M39.5187 17.2939H37.2313C36.9125 17.2939 36.6688 17.0502 36.6688 16.7314C36.6688 16.4127 36.9125 16.1689 37.2313 16.1689H39.5187C39.8375 16.1689 40.0812 16.4127 40.0812 16.7314C40.0812 17.0502 39.8187 17.2939 39.5187 17.2939Z" fill="#C4EF17"/>
<path d="M39.5187 22.6189H37.25C36.9312 22.6189 36.6875 22.3751 36.6875 22.0564C36.6875 21.7376 36.9312 21.4939 37.25 21.4939H39.5187C39.8375 21.4939 40.0812 21.7376 40.0812 22.0564C40.0812 22.3751 39.8187 22.6189 39.5187 22.6189Z" fill="#C4EF17"/>
<path d="M26.6 22.619C26.45 22.619 26.3 22.5627 26.2063 22.4502C26.0938 22.3377 26.0375 22.2065 26.0375 22.0565C26.0375 21.9065 26.0938 21.7565 26.2063 21.6627C26.4125 21.4565 26.7875 21.4565 27.0125 21.6627C27.1063 21.7752 27.1813 21.9065 27.1813 22.0565C27.1813 22.2065 27.125 22.3565 27.0125 22.4502C26.9 22.5627 26.75 22.619 26.6 22.619Z" fill="#C4EF17"/>
<path d="M31.9062 22.619C31.7562 22.619 31.6063 22.5627 31.5125 22.4502C31.4188 22.3377 31.3438 22.2065 31.3438 22.0565C31.3438 21.9065 31.4 21.7565 31.5125 21.6627C31.7188 21.4565 32.0937 21.4565 32.3187 21.6627C32.4312 21.7752 32.4875 21.9065 32.4875 22.0565C32.4875 22.2065 32.4312 22.3565 32.3187 22.4502C32.2062 22.5627 32.0562 22.619 31.9062 22.619Z" fill="#C4EF17"/>
<path d="M37.2313 22.6189C36.9125 22.6189 36.6688 22.3751 36.6688 22.0564C36.6688 21.7376 36.9125 21.4939 37.2313 21.4939C37.55 21.4939 37.7938 21.7376 37.7938 22.0564C37.7938 22.3751 37.55 22.6189 37.2313 22.6189Z" fill="#C4EF17"/>
<path d="M31.9062 27.9251C31.7562 27.9251 31.6063 27.8689 31.5125 27.7564C31.4188 27.6626 31.3438 27.5126 31.3438 27.3626C31.3438 27.2126 31.4 27.0626 31.5125 26.9689C31.7188 26.7626 32.0937 26.7626 32.3187 26.9689C32.4312 27.0814 32.4875 27.2126 32.4875 27.3626C32.4875 27.5126 32.4312 27.6626 32.3187 27.7564C32.2062 27.8689 32.0562 27.9251 31.9062 27.9251Z" fill="#C4EF17"/>
<path d="M37.2312 27.9438H31.9062C31.5875 27.9438 31.3438 27.7001 31.3438 27.3813C31.3438 27.0626 31.5875 26.8188 31.9062 26.8188H37.2312C37.55 26.8188 37.7937 27.0626 37.7937 27.3813C37.7937 27.6813 37.55 27.9438 37.2312 27.9438Z" fill="#C4EF17"/>
<path d="M31.9063 27.9438H26.5813C26.2625 27.9438 26.0188 27.7001 26.0188 27.3813C26.0188 27.0626 26.2625 26.8188 26.5813 26.8188H31.9063C32.225 26.8188 32.4688 27.0626 32.4688 27.3813C32.4688 27.6813 32.225 27.9438 31.9063 27.9438Z" fill="#C4EF17"/>
<path d="M26.6 27.9251C26.45 27.9251 26.3 27.8689 26.2063 27.7564C26.0938 27.6439 26.0375 27.5126 26.0375 27.3626C26.0375 27.2126 26.0938 27.0626 26.2063 26.9689C26.4125 26.7626 26.7875 26.7626 27.0125 26.9689C27.1063 27.0814 27.1813 27.2126 27.1813 27.3626C27.1813 27.5126 27.125 27.6626 27.0125 27.7564C26.9 27.8689 26.75 27.9251 26.6 27.9251Z" fill="#C4EF17"/>
<path d="M39.5187 27.9438H37.2313C36.9125 27.9438 36.6688 27.7001 36.6688 27.3813C36.6688 27.0626 36.9125 26.8188 37.2313 26.8188H39.5187C39.8375 26.8188 40.0812 27.0626 40.0812 27.3813C40.0812 27.6813 39.8187 27.9438 39.5187 27.9438Z" fill="#C4EF17"/>
<path d="M37.2313 27.9251C37.0813 27.9251 36.9312 27.8689 36.8375 27.7564C36.725 27.6626 36.6688 27.5126 36.6688 27.3626C36.6688 27.2126 36.725 27.0626 36.8375 26.9689C37.0437 26.7626 37.4188 26.7626 37.625 26.9689C37.7375 27.0814 37.7938 27.2126 37.7938 27.3626C37.7938 27.5126 37.7375 27.6626 37.625 27.7564C37.5313 27.8689 37.3813 27.9251 37.2313 27.9251Z" fill="#C4EF17"/>
<path d="M39.5188 53.8375C32.0938 53.8375 26.0375 47.8 26.0375 40.3563C26.0375 40.0375 26.2813 39.7938 26.6 39.7938C26.9188 39.7938 27.1625 40.0375 27.1625 40.3563C27.1625 47.1625 32.6938 52.7125 39.5188 52.7125C46.325 52.7125 51.875 47.1625 51.875 40.3563C51.875 33.55 46.325 28.0188 39.5188 28.0188C39.2 28.0188 38.9563 27.775 38.9563 27.4563C38.9563 27.1375 39.2 26.8938 39.5188 26.8938C46.9438 26.8938 53 32.9313 53 40.3563C52.9813 47.8 46.9438 53.8375 39.5188 53.8375Z" fill="#C4EF17"/>
<path d="M39.5188 48.5315C35.0188 48.5315 31.3625 44.8752 31.3625 40.3752C31.3625 40.0565 31.6063 39.8127 31.925 39.8127C32.2438 39.8127 32.4875 40.0565 32.4875 40.3752C32.4875 44.2565 35.6375 47.4065 39.5188 47.4065C43.4 47.4065 46.55 44.2565 46.55 40.3752C46.55 36.494 43.4 33.344 39.5188 33.344C39.2 33.344 38.9563 33.1002 38.9563 32.7815C38.9563 32.4627 39.2 32.219 39.5188 32.219C44.0188 32.219 47.675 35.8752 47.675 40.3752C47.675 44.8752 44.0188 48.5315 39.5188 48.5315Z" fill="#C4EF17"/>
<path d="M39.5187 43.2064C37.9625 43.2064 36.6875 41.9314 36.6875 40.3564C36.6875 40.0376 36.9312 39.7939 37.25 39.7939C37.5687 39.7939 37.8125 40.0376 37.8125 40.3564C37.8125 41.3126 38.5812 42.0814 39.5187 42.0814C40.4562 42.0814 41.2437 41.3126 41.2437 40.3564C41.2437 39.4189 40.475 38.6501 39.5187 38.6501C39.2 38.6501 38.9562 38.4064 38.9562 38.0876C38.9562 37.7689 39.2 37.5251 39.5187 37.5251C41.0937 37.5251 42.3687 38.8001 42.3687 40.3564C42.35 41.9314 41.075 43.2064 39.5187 43.2064Z" fill="#C4EF17"/>
<path d="M37.2313 28.0189C36.9125 28.0189 36.6688 27.7752 36.6688 27.4564V27.4189C36.6688 27.1002 36.9125 26.8564 37.2313 26.8564C37.55 26.8564 37.7938 27.1002 37.7938 27.4189V27.4564C37.7938 27.7564 37.55 28.0189 37.2313 28.0189Z" fill="#C4EF17"/>
<path d="M37.2313 27.9813C36.9125 27.9813 36.6688 27.7376 36.6688 27.4188V27.3813C36.6688 27.0626 36.9125 26.8188 37.2313 26.8188C37.55 26.8188 37.7938 27.0626 37.7938 27.3813V27.4188C37.7938 27.7188 37.55 27.9813 37.2313 27.9813Z" fill="#C4EF17"/>
<path d="M37.2313 22.6189C36.9125 22.6189 36.6688 22.3752 36.6688 22.0564V20.8564C36.6688 20.5377 36.9125 20.2939 37.2313 20.2939C37.55 20.2939 37.7938 20.5377 37.7938 20.8564V22.0564C37.7938 22.3564 37.55 22.6189 37.2313 22.6189Z" fill="#C4EF17"/>
<path d="M37.2313 27.9439C36.9125 27.9439 36.6688 27.7001 36.6688 27.3814V22.0564C36.6688 21.7376 36.9125 21.4939 37.2313 21.4939C37.55 21.4939 37.7938 21.7376 37.7938 22.0564V27.3814C37.7938 27.6814 37.55 27.9439 37.2313 27.9439Z" fill="#C4EF17"/>
<path d="M37.2313 40.9376C36.9125 40.9376 36.6688 40.6939 36.6688 40.3751V38.0876C36.6688 37.7689 36.9125 37.5251 37.2313 37.5251C37.55 37.5251 37.7938 37.7689 37.7938 38.0876V40.3751C37.7938 40.6751 37.55 40.9376 37.2313 40.9376Z" fill="#C4EF17"/>
<path d="M31.9062 27.9813C31.5875 27.9813 31.3438 27.7376 31.3438 27.4188V27.3813C31.3438 27.0626 31.5875 26.8188 31.9062 26.8188C32.225 26.8188 32.4687 27.0626 32.4687 27.3813V27.4188C32.4687 27.7188 32.225 27.9813 31.9062 27.9813Z" fill="#C4EF17"/>
<path d="M31.9062 28.0189C31.5875 28.0189 31.3438 27.7752 31.3438 27.4564V27.4189C31.3438 27.1002 31.5875 26.8564 31.9062 26.8564C32.225 26.8564 32.4687 27.1002 32.4687 27.4189V27.4564C32.4687 27.7564 32.225 28.0189 31.9062 28.0189Z" fill="#C4EF17"/>
<path d="M31.9062 22.6189C31.5875 22.6189 31.3438 22.3752 31.3438 22.0564V20.8564C31.3438 20.5377 31.5875 20.2939 31.9062 20.2939C32.225 20.2939 32.4687 20.5377 32.4687 20.8564V22.0564C32.4687 22.3564 32.225 22.6189 31.9062 22.6189Z" fill="#C4EF17"/>
<path d="M31.9062 27.9439C31.5875 27.9439 31.3438 27.7001 31.3438 27.3814V22.0564C31.3438 21.7376 31.5875 21.4939 31.9062 21.4939C32.225 21.4939 32.4687 21.7376 32.4687 22.0564V27.3814C32.4687 27.6814 32.225 27.9439 31.9062 27.9439Z" fill="#C4EF17"/>
<path d="M31.9062 40.9376C31.5875 40.9376 31.3438 40.6939 31.3438 40.3751V38.0876C31.3438 37.7689 31.5875 37.5251 31.9062 37.5251C32.225 37.5251 32.4687 37.7689 32.4687 38.0876V40.3751C32.4687 40.6751 32.225 40.9376 31.9062 40.9376Z" fill="#C4EF17"/>
<path d="M26.6 28.0189C26.2813 28.0189 26.0375 27.7752 26.0375 27.4564V27.4189C26.0375 27.1002 26.2813 26.8564 26.6 26.8564C26.9188 26.8564 27.1625 27.1002 27.1625 27.4189V27.4564C27.1625 27.7564 26.9 28.0189 26.6 28.0189Z" fill="#C4EF17"/>
<path d="M26.6 22.6189C26.2813 22.6189 26.0375 22.3752 26.0375 22.0564V20.8564C26.0375 20.5377 26.2813 20.2939 26.6 20.2939C26.9188 20.2939 27.1625 20.5377 27.1625 20.8564V22.0564C27.1625 22.3564 26.9 22.6189 26.6 22.6189Z" fill="#C4EF17"/>
<path d="M26.6 27.9813C26.2813 27.9813 26.0375 27.7376 26.0375 27.4188V27.3813C26.0375 27.0626 26.2813 26.8188 26.6 26.8188C26.9188 26.8188 27.1625 27.0626 27.1625 27.3813V27.4188C27.1625 27.7188 26.9 27.9813 26.6 27.9813Z" fill="#C4EF17"/>
<path d="M26.6 27.9439C26.2813 27.9439 26.0375 27.7001 26.0375 27.3814V22.0564C26.0375 21.7376 26.2813 21.4939 26.6 21.4939C26.9188 21.4939 27.1625 21.7376 27.1625 22.0564V27.3814C27.1625 27.6814 26.9 27.9439 26.6 27.9439Z" fill="#C4EF17"/>
<path d="M26.6 40.9376C26.2813 40.9376 26.0375 40.6939 26.0375 40.3751V38.0876C26.0375 37.7689 26.2813 37.5251 26.6 37.5251C26.9188 37.5251 27.1625 37.7689 27.1625 38.0876V40.3751C27.1625 40.6751 26.9 40.9376 26.6 40.9376Z" fill="#C4EF17"/>
<path d="M37.2312 38.6501H31.9062C31.5875 38.6501 31.3438 38.4064 31.3438 38.0876C31.3438 37.7689 31.5875 37.5251 31.9062 37.5251H37.2312C37.55 37.5251 37.7937 37.7689 37.7937 38.0876C37.7937 38.4064 37.55 38.6501 37.2312 38.6501Z" fill="#C4EF17"/>
<path d="M39.5187 38.6501H37.2313C36.9125 38.6501 36.6688 38.4064 36.6688 38.0876C36.6688 37.7689 36.9125 37.5251 37.2313 37.5251H39.5187C39.8375 37.5251 40.0812 37.7689 40.0812 38.0876C40.0812 38.4064 39.8187 38.6501 39.5187 38.6501Z" fill="#C4EF17"/>
<path d="M31.9063 38.6501H26.5813C26.2625 38.6501 26.0188 38.4064 26.0188 38.0876C26.0188 37.7689 26.2625 37.5251 26.5813 37.5251H31.9063C32.225 37.5251 32.4688 37.7689 32.4688 38.0876C32.4688 38.4064 32.225 38.6501 31.9063 38.6501Z" fill="#C4EF17"/>
<path d="M26.6 33.325C26.45 33.325 26.3 33.2688 26.2063 33.1563C26.0938 33.0438 26.0375 32.9125 26.0375 32.7625C26.0375 32.6125 26.0938 32.4625 26.2063 32.3688C26.4125 32.1625 26.7875 32.1625 27.0125 32.3688C27.1063 32.4813 27.1813 32.6125 27.1813 32.7625C27.1813 32.9125 27.125 33.0625 27.0125 33.1563C26.9 33.2688 26.75 33.325 26.6 33.325Z" fill="#C4EF17"/>
<path d="M37.2312 33.3252H31.9062C31.5875 33.3252 31.3438 33.0814 31.3438 32.7627C31.3438 32.4439 31.5875 32.2002 31.9062 32.2002H37.2312C37.55 32.2002 37.7937 32.4439 37.7937 32.7627C37.7937 33.0814 37.55 33.3252 37.2312 33.3252Z" fill="#C4EF17"/>
<path d="M31.9063 33.3252H26.5813C26.2625 33.3252 26.0188 33.0814 26.0188 32.7627C26.0188 32.4439 26.2625 32.2002 26.5813 32.2002H31.9063C32.225 32.2002 32.4688 32.4439 32.4688 32.7627C32.4688 33.0814 32.225 33.3252 31.9063 33.3252Z" fill="#C4EF17"/>
<path d="M37.2313 33.3252C36.9125 33.3252 36.6688 33.0814 36.6688 32.7627C36.6688 32.4439 36.9125 32.2002 37.2313 32.2002C37.55 32.2002 37.7938 32.4439 37.7938 32.7627C37.7938 33.0814 37.55 33.3252 37.2313 33.3252Z" fill="#C4EF17"/>
<path d="M39.5187 33.3252H37.25C36.9312 33.3252 36.6875 33.0814 36.6875 32.7627C36.6875 32.4439 36.9312 32.2002 37.25 32.2002H39.5187C39.8375 32.2002 40.0812 32.4439 40.0812 32.7627C40.0812 33.0814 39.8187 33.3252 39.5187 33.3252Z" fill="#C4EF17"/>
<path d="M31.9062 33.325C31.7562 33.325 31.6063 33.2688 31.5125 33.1563C31.4188 33.0438 31.3438 32.9125 31.3438 32.7625C31.3438 32.6125 31.4 32.4625 31.5125 32.3688C31.7188 32.1625 32.0937 32.1625 32.3187 32.3688C32.4312 32.4813 32.4875 32.6125 32.4875 32.7625C32.4875 32.9125 32.4312 33.0625 32.3187 33.1563C32.2062 33.2688 32.0562 33.325 31.9062 33.325Z" fill="#C4EF17"/>
<path d="M39.5187 28.0188H37.2313C36.9125 28.0188 36.6688 27.775 36.6688 27.4563C36.6688 27.1375 36.9125 26.8938 37.2313 26.8938H39.5187C39.8375 26.8938 40.0812 27.1375 40.0812 27.4563C40.0812 27.7563 39.8187 28.0188 39.5187 28.0188Z" fill="#C4EF17"/>
<path d="M31.9062 28.0189C31.7562 28.0189 31.6063 27.9626 31.5125 27.8501C31.4188 27.7376 31.3438 27.6064 31.3438 27.4564C31.3438 27.3064 31.4 27.1564 31.5125 27.0626C31.7188 26.8564 32.0937 26.8564 32.3187 27.0626C32.4312 27.1751 32.4875 27.3064 32.4875 27.4564C32.4875 27.6064 32.4312 27.7564 32.3187 27.8501C32.2062 27.9626 32.0562 28.0189 31.9062 28.0189Z" fill="#C4EF17"/>
<path d="M26.6 28.0189C26.45 28.0189 26.3 27.9626 26.2063 27.8501C26.0938 27.7376 26.0375 27.6064 26.0375 27.4564C26.0375 27.3064 26.0938 27.1564 26.2063 27.0626C26.4125 26.8564 26.7875 26.8564 27.0125 27.0626C27.1063 27.1751 27.1813 27.3064 27.1813 27.4564C27.1813 27.6064 27.125 27.7564 27.0125 27.8501C26.8813 27.9626 26.75 28.0189 26.6 28.0189Z" fill="#C4EF17"/>
<path d="M31.9063 28.0188H26.5813C26.2625 28.0188 26.0188 27.775 26.0188 27.4563C26.0188 27.1375 26.2625 26.8938 26.5813 26.8938H31.9063C32.225 26.8938 32.4688 27.1375 32.4688 27.4563C32.4688 27.7563 32.225 28.0188 31.9063 28.0188Z" fill="#C4EF17"/>
<path d="M37.2313 28.0189C37.0813 28.0189 36.9312 27.9626 36.8375 27.8501C36.725 27.7376 36.6688 27.6064 36.6688 27.4564C36.6688 27.3064 36.725 27.1564 36.8375 27.0626C37.0437 26.8564 37.4188 26.8564 37.625 27.0626C37.7375 27.1751 37.7938 27.3064 37.7938 27.4564C37.7938 27.6064 37.7375 27.7564 37.625 27.8501C37.5313 27.9626 37.3813 28.0189 37.2313 28.0189Z" fill="#C4EF17"/>
<path d="M37.2312 28.0188H31.9062C31.5875 28.0188 31.3438 27.775 31.3438 27.4563C31.3438 27.1375 31.5875 26.8938 31.9062 26.8938H37.2312C37.55 26.8938 37.7937 27.1375 37.7937 27.4563C37.7937 27.7563 37.55 28.0188 37.2312 28.0188Z" fill="#C4EF17"/>
</svg>
