<svg width="66" height="50" viewBox="0 0 66 50" fill="none" xmlns="http://www.w3.org/2000/svg">
<path d="M28.0586 31.9208C28.0586 31.7594 28.1191 31.6182 28.2401 31.4972C28.4822 31.2552 28.8654 31.2552 29.0873 31.4972C31.2457 33.6556 34.7757 33.6556 36.934 31.4972C37.1761 31.2552 37.5593 31.2552 37.7812 31.4972C38.0233 31.7393 38.0233 32.1225 37.7812 32.3444C35.1388 34.9667 30.8624 34.9667 28.2401 32.3444C28.1191 32.2436 28.0586 32.0822 28.0586 31.9208Z" fill="#C4EF17"/>
<path d="M24.5688 35.4103C24.5688 35.2489 24.6294 35.1077 24.7504 34.9867C24.9925 34.7447 25.3757 34.7447 25.5976 34.9867C27.5744 36.9635 30.1967 38.0528 33.0006 38.0528C35.7842 38.0528 38.4267 36.9635 40.4035 34.9867C40.6455 34.7447 41.0288 34.7447 41.2507 34.9867C41.4928 35.2288 41.4928 35.612 41.2507 35.8339C39.052 38.0326 36.107 39.2429 33.0006 39.2429C29.874 39.2429 26.9491 38.0326 24.7504 35.8137C24.6294 35.7129 24.5688 35.5515 24.5688 35.4103Z" fill="#C4EF17"/>
<path d="M21.0994 38.8798C21.0994 38.7184 21.1599 38.5772 21.2809 38.4562C21.523 38.2141 21.9062 38.2141 22.1281 38.4562C28.119 44.4471 37.8821 44.4471 43.873 38.4562C44.1151 38.2141 44.4983 38.2141 44.7202 38.4562C44.9622 38.6983 44.9622 39.0815 44.7202 39.3034C38.2653 45.7583 27.7358 45.7583 21.2607 39.3034C21.1599 39.1824 21.0994 39.0412 21.0994 38.8798Z" fill="#C4EF17"/>
<path d="M17.6299 42.3493C17.6299 42.1879 17.6904 42.0467 17.8115 41.9257C18.0535 41.6836 18.4368 41.6836 18.6587 41.9257C26.5659 49.8329 39.4353 49.8329 47.3627 41.9257C47.6048 41.6836 47.988 41.6836 48.2099 41.9257C48.452 42.1677 48.452 42.551 48.2099 42.7729C39.8186 51.1642 26.1826 51.1441 17.8115 42.7729C17.6904 42.672 17.6299 42.5107 17.6299 42.3493Z" fill="#C4EF17"/>
<path d="M46.8986 42.5714C46.8986 42.41 46.9591 42.2688 47.0802 42.1478L54.3016 34.9264C54.5436 34.6844 54.9269 34.6844 55.1488 34.9264C55.3908 35.1685 55.3908 35.5517 55.1488 35.7736L47.9274 42.995C47.6853 43.2371 47.3021 43.2371 47.0802 42.995C46.9591 42.8942 46.8986 42.7328 46.8986 42.5714Z" fill="#C4EF17"/>
<path d="M43.4291 39.1014C43.4291 38.9401 43.4897 38.7989 43.6107 38.6778L50.8321 31.4564C51.0742 31.2144 51.4574 31.2144 51.6793 31.4564C51.9214 31.6985 51.9214 32.0818 51.6793 32.3036L44.4579 39.5251C44.2158 39.7671 43.8326 39.7671 43.6107 39.5251C43.4897 39.4242 43.4291 39.2628 43.4291 39.1014Z" fill="#C4EF17"/>
<path d="M39.9597 35.6322C39.9597 35.4708 40.0202 35.3296 40.1412 35.2086L47.3626 27.9872C47.6047 27.7451 47.9879 27.7451 48.2098 27.9872C48.4519 28.2293 48.4519 28.6125 48.2098 28.8344L40.9884 36.0558C40.7463 36.2979 40.3631 36.2979 40.1412 36.0558C40.0202 35.955 39.9597 35.7936 39.9597 35.6322Z" fill="#C4EF17"/>
<path d="M36.5103 32.183C36.5103 32.0216 36.5708 31.8804 36.6919 31.7594L43.9133 24.538C44.1553 24.2959 44.5386 24.2959 44.7605 24.538C45.0025 24.78 45.0025 25.1633 44.7605 25.3852L37.5391 32.6066C37.297 32.8487 36.9138 32.8487 36.6919 32.6066C36.5708 32.4856 36.5103 32.3242 36.5103 32.183Z" fill="#C4EF17"/>
<path d="M10.4085 14.3312C10.4085 14.1698 10.469 14.0286 10.59 13.9076C10.8321 13.6656 11.2153 13.6656 11.4372 13.9076L29.047 31.5375C29.289 31.7796 29.289 32.1628 29.047 32.3847C28.8049 32.6268 28.4216 32.6268 28.1998 32.3847L10.59 14.7548C10.469 14.6338 10.4085 14.4926 10.4085 14.3312Z" fill="#C4EF17"/>
<path d="M6.93886 17.8005C6.93886 17.6391 6.99938 17.4979 7.12041 17.3769C7.36246 17.1348 7.74574 17.1348 7.96762 17.3769L25.5975 35.0068C25.8396 35.2488 25.8396 35.6321 25.5975 35.854C25.3555 36.096 24.9722 36.096 24.7503 35.854L7.12041 18.2241C6.99938 18.103 6.93886 17.9618 6.93886 17.8005Z" fill="#C4EF17"/>
<path d="M3.4695 21.2702C3.4695 21.1088 3.53002 20.9676 3.65105 20.8466C3.8931 20.6045 4.27635 20.6045 4.49824 20.8466L22.1281 38.4563C22.3702 38.6984 22.3702 39.0816 22.1281 39.3035C21.8861 39.5456 21.5028 39.5456 21.281 39.3035L3.65105 21.6736C3.53002 21.5728 3.4695 21.4114 3.4695 21.2702Z" fill="#C4EF17"/>
<path d="M-0.000106838 24.7397C-0.000106831 24.5783 0.0603886 24.4371 0.181417 24.3161C0.423475 24.074 0.806749 24.074 1.02864 24.3161L18.6585 41.946C18.9006 42.188 18.9006 42.5713 18.6585 42.7932C18.4165 43.0352 18.0332 43.0352 17.8113 42.7932L0.181417 25.1633C0.0603885 25.0422 -0.000106844 24.8809 -0.000106838 24.7397Z" fill="#C4EF17"/>
<path d="M27.7965 17.7805C27.7965 17.6191 27.857 17.4779 27.978 17.3569C30.6205 14.7346 34.8968 14.7346 37.5191 17.3569C37.7612 17.5989 37.7612 17.9822 37.5191 18.2041C37.2771 18.4461 36.8938 18.4461 36.6719 18.2041C34.5136 16.0457 31.0037 16.0457 28.8252 18.2041C28.5831 18.4461 28.1999 18.4461 27.978 18.2041C27.857 18.083 27.7965 17.9418 27.7965 17.7805Z" fill="#C4EF17"/>
<path d="M24.3269 14.3111C24.3269 14.1497 24.3875 14.0085 24.5085 13.8875C26.7072 11.6888 29.6522 10.4785 32.7586 10.4785C35.8852 10.4785 38.8101 11.6888 41.0088 13.9077C41.2508 14.1497 41.2508 14.533 41.0088 14.7549C40.7667 14.9969 40.3835 14.9969 40.1616 14.7549C38.1848 12.7781 35.5624 11.6888 32.7586 11.6888C29.9749 11.6888 27.3325 12.7781 25.3557 14.7549C25.1136 14.9969 24.7304 14.9969 24.5085 14.7549C24.3875 14.6137 24.3269 14.4725 24.3269 14.3111Z" fill="#C4EF17"/>
<path d="M20.8574 10.8416C20.8574 10.6802 20.9179 10.539 21.0389 10.418C24.1655 7.29139 28.341 5.55664 32.7586 5.55664C37.1963 5.55664 41.3517 7.29139 44.4782 10.418C44.7203 10.66 44.7203 11.0433 44.4782 11.2652C44.2362 11.5072 43.8529 11.5072 43.631 11.2652C40.7263 8.36048 36.8736 6.76693 32.7586 6.76693C28.6436 6.76693 24.7908 8.36048 21.8862 11.2652C21.6441 11.5072 21.2608 11.5072 21.0389 11.2652C20.9179 11.1441 20.8574 10.9828 20.8574 10.8416Z" fill="#C4EF17"/>
<path d="M17.3878 7.35188C17.3878 7.19051 17.4484 7.04931 17.5694 6.92828C21.6239 2.8738 27.0298 0.634765 32.7787 0.634765C38.5276 0.634765 43.9134 2.8738 47.988 6.92828C48.2301 7.17034 48.2301 7.5536 47.988 7.77548C47.746 8.01754 47.3627 8.01754 47.1408 7.77548C43.3082 3.94289 38.2048 1.82488 32.7989 1.82488C27.3727 1.82488 22.2895 3.94289 18.4569 7.77548C18.2149 8.01754 17.8316 8.01754 17.6097 7.77548C17.4483 7.65445 17.3878 7.51325 17.3878 7.35188Z" fill="#C4EF17"/>
<path d="M10.4284 14.3517C10.4284 14.1903 10.4889 14.0491 10.61 13.9281L17.8313 6.70669C18.0734 6.46463 18.4567 6.46463 18.6786 6.70669C18.9206 6.94875 18.9206 7.33201 18.6786 7.55389L11.4572 14.7753C11.2151 15.0174 10.8318 15.0174 10.61 14.7753C10.4889 14.6543 10.4284 14.5131 10.4284 14.3517Z" fill="#C4EF17"/>
<path d="M13.898 17.8214C13.898 17.66 13.9585 17.5188 14.0796 17.3978L21.301 10.1764C21.543 9.93436 21.9263 9.93436 22.1482 10.1764C22.3902 10.4185 22.3902 10.8017 22.1482 11.0236L14.9268 18.245C14.6847 18.4871 14.3014 18.4871 14.0796 18.245C13.9585 18.124 13.898 17.9828 13.898 17.8214Z" fill="#C4EF17"/>
<path d="M17.3675 21.2909C17.3675 21.1295 17.428 20.9883 17.549 20.8673L24.7704 13.6459C25.0125 13.4038 25.3958 13.4038 25.6177 13.6459C25.8597 13.888 25.8597 14.2712 25.6177 14.4931L18.3962 21.7145C18.1542 21.9566 17.7709 21.9566 17.549 21.7145C17.428 21.5935 17.3675 21.4523 17.3675 21.2909Z" fill="#C4EF17"/>
<path d="M20.837 24.7601C20.837 24.5988 20.8975 24.4576 21.0185 24.3365L28.2399 17.1151C28.482 16.8731 28.8652 16.8731 29.0871 17.1151C29.3292 17.3572 29.3292 17.7405 29.0871 17.9623L21.8657 25.1837C21.6237 25.4258 21.2404 25.4258 21.0185 25.1837C20.8975 25.0627 20.837 24.9215 20.837 24.7601Z" fill="#C4EF17"/>
<path d="M36.5307 17.7604C36.5307 17.599 36.5912 17.4578 36.7122 17.3368C36.9543 17.0948 37.3375 17.0948 37.5594 17.3368L55.1692 34.9667C55.4112 35.2088 55.4112 35.592 55.1692 35.8139C54.9271 36.056 54.5438 36.056 54.3219 35.8139L36.7122 18.184C36.5912 18.063 36.5307 17.9218 36.5307 17.7604Z" fill="#C4EF17"/>
<path d="M40.0001 14.2909C40.0001 14.1296 40.0607 13.9884 40.1817 13.8673C40.4237 13.6253 40.807 13.6253 41.0289 13.8673L58.6588 31.4972C58.9008 31.7393 58.9008 32.1226 58.6588 32.3444C58.4167 32.5865 58.0335 32.5865 57.8116 32.3444L40.1817 14.7145C40.0607 14.5935 40.0001 14.4523 40.0001 14.2909Z" fill="#C4EF17"/>
<path d="M43.4696 10.8212C43.4696 10.6598 43.5301 10.5186 43.6512 10.3976C43.8932 10.1555 44.2765 10.1555 44.4984 10.3976L62.1283 28.0275C62.3703 28.2696 62.3703 28.6528 62.1283 28.8747C61.8862 29.1168 61.503 29.1168 61.2811 28.8747L43.6512 11.2448C43.5301 11.144 43.4696 10.9826 43.4696 10.8212Z" fill="#C4EF17"/>
<path d="M46.9391 7.35197C46.9391 7.1906 46.9996 7.0494 47.1207 6.92837C47.3627 6.68631 47.746 6.68631 47.9678 6.92837L65.5978 24.5583C65.8398 24.8003 65.8398 25.1836 65.5978 25.4055C65.3557 25.6475 64.9724 25.6475 64.7505 25.4055L47.1207 7.77557C46.9996 7.67472 46.9391 7.51334 46.9391 7.35197Z" fill="#C4EF17"/>
</svg>
