<svg width="50" height="54" viewBox="0 0 50 54" fill="none" xmlns="http://www.w3.org/2000/svg">
<path d="M21.9149 54.0096C21.8234 54.0096 21.7318 53.9913 21.6403 53.9364L0.274503 41.5966C0.109728 41.505 -0.00012207 41.3219 -0.00012207 41.1206V12.8891C-0.00012207 12.6877 0.109728 12.5047 0.274503 12.4131L21.6403 0.0733188C21.8966 -0.0731476 22.2445 0.0183939 22.3909 0.27471C22.5374 0.531027 22.4459 0.878885 22.1896 1.02535L1.09838 13.2004V40.791L22.1896 52.966C22.4459 53.1125 22.5374 53.4604 22.3909 53.7167C22.2811 53.8998 22.098 54.0096 21.9149 54.0096Z" fill="#C4EF17"/>
<path d="M21.915 48.9381C21.8234 48.9381 21.7319 48.9198 21.6403 48.8649L4.66855 39.0699C4.50377 38.9784 4.39392 38.7953 4.39392 38.5939V15.4339C4.39392 15.2325 4.50377 15.0494 4.66855 14.9579L21.6403 5.14461C21.8967 4.99814 22.2445 5.08968 22.391 5.346C22.5375 5.60232 22.4459 5.95017 22.1896 6.09664L5.49242 15.7451V38.2643L22.1896 47.9128C22.4459 48.0593 22.5375 48.4071 22.391 48.6635C22.2811 48.8282 22.0981 48.9381 21.915 48.9381Z" fill="#C4EF17"/>
<path d="M21.9149 43.8485C21.8234 43.8485 21.7318 43.8302 21.6403 43.7753L9.06247 36.5069C8.89769 36.4153 8.78784 36.2323 8.78784 36.0309V17.9606C8.78784 17.7592 8.89769 17.5761 9.06247 17.4845L21.6403 10.2161C21.8966 10.0697 22.2445 10.1612 22.3909 10.4175C22.5374 10.6738 22.4458 11.0217 22.1895 11.1682L9.88634 18.2718V35.7196L22.1895 42.8232C22.4458 42.9697 22.5374 43.3176 22.3909 43.5739C22.2811 43.757 22.098 43.8485 21.9149 43.8485Z" fill="#C4EF17"/>
<path d="M21.915 38.7221C21.8234 38.7221 21.7319 38.7038 21.6403 38.6488L13.5114 33.9436C13.3467 33.8521 13.2368 33.669 13.2368 33.4676V20.5053C13.2368 20.3039 13.3467 20.1208 13.5114 20.0293L21.6403 15.3241C21.8966 15.1776 22.2445 15.2691 22.391 15.5254C22.5374 15.7818 22.4459 16.1296 22.1896 16.2761L14.3353 20.8165V33.138L22.1896 37.6785C22.4459 37.825 22.5374 38.1728 22.391 38.4291C22.2811 38.6305 22.098 38.7221 21.915 38.7221Z" fill="#C4EF17"/>
<path d="M28.1032 54.0096C27.9201 54.0096 27.737 53.9181 27.6271 53.735C27.4807 53.4787 27.5722 53.1308 27.8285 52.9843L48.9197 40.8093V13.2187L27.8102 1.02535C27.5539 0.878885 27.4624 0.531027 27.6088 0.27471C27.7553 0.0183939 28.1032 -0.0731476 28.3595 0.0733188L49.7253 12.4131C49.8901 12.5047 49.9999 12.6877 49.9999 12.8891V41.1206C49.9999 41.3219 49.8901 41.505 49.7253 41.5966L28.3778 53.9364C28.2862 53.973 28.1947 54.0096 28.1032 54.0096Z" fill="#C4EF17"/>
<path d="M28.1032 48.9381C27.9201 48.9381 27.737 48.8465 27.6271 48.6635C27.4807 48.4071 27.5722 48.0593 27.8285 47.9128L44.5257 38.2643V15.7451L27.8102 6.09664C27.5539 5.95017 27.4624 5.60232 27.6088 5.346C27.7553 5.08968 28.1032 4.99814 28.3595 5.14461L45.3496 14.9579C45.5144 15.0494 45.6242 15.2325 45.6242 15.4339V38.5939C45.6242 38.7953 45.5144 38.9784 45.3496 39.0699L28.3778 48.8649C28.2862 48.9198 28.1947 48.9381 28.1032 48.9381Z" fill="#C4EF17"/>
<path d="M28.1032 43.8485C27.9201 43.8485 27.737 43.757 27.6271 43.5739C27.4807 43.3176 27.5722 42.9697 27.8285 42.8232L40.1317 35.7196V18.2718L27.8102 11.1682C27.5539 11.0217 27.4624 10.6738 27.6088 10.4175C27.7553 10.1612 28.1032 10.0697 28.3595 10.2161L40.9373 17.4845C41.1021 17.5761 41.2119 17.7592 41.2119 17.9606V36.0492C41.2119 36.2506 41.1021 36.4336 40.9373 36.5252L28.3778 43.7753C28.2862 43.8302 28.1947 43.8485 28.1032 43.8485Z" fill="#C4EF17"/>
<path d="M28.1032 38.7221C27.9201 38.7221 27.737 38.6305 27.6272 38.4475C27.4807 38.1911 27.5722 37.8433 27.8285 37.6968L35.7011 33.1563V20.8349L27.8285 16.2944C27.5722 16.1479 27.4807 15.8001 27.6272 15.5438C27.7736 15.2874 28.1215 15.1959 28.3778 15.3424L36.525 20.0476C36.6898 20.1391 36.7996 20.3222 36.7996 20.5236V33.4859C36.7996 33.6873 36.6898 33.8704 36.525 33.9619L28.3778 38.6488C28.2863 38.7038 28.1947 38.7221 28.1032 38.7221Z" fill="#C4EF17"/>
<path d="M21.915 11.2412C21.6037 11.2412 21.3657 11.0032 21.3657 10.6919V5.62054C21.3657 5.3093 21.6037 5.07129 21.915 5.07129C22.2262 5.07129 22.4642 5.3093 22.4642 5.62054V10.6919C22.4642 11.0032 22.2262 11.2412 21.915 11.2412Z" fill="#C4EF17"/>
<path d="M21.915 54.0095C21.6037 54.0095 21.3657 53.7715 21.3657 53.4603V48.3888C21.3657 48.0776 21.6037 47.8396 21.915 47.8396C22.2262 47.8396 22.4642 48.0776 22.4642 48.3888V53.4603C22.4642 53.7532 22.2262 54.0095 21.915 54.0095Z" fill="#C4EF17"/>
<path d="M21.915 43.8484C21.6037 43.8484 21.3657 43.6104 21.3657 43.2991V38.1728C21.3657 37.8615 21.6037 37.6235 21.915 37.6235C22.2262 37.6235 22.4642 37.8615 22.4642 38.1728V43.2991C22.4642 43.6104 22.2262 43.8484 21.915 43.8484Z" fill="#C4EF17"/>
<path d="M28.1031 48.9382C27.7918 48.9382 27.5538 48.7002 27.5538 48.389V43.3176C27.5538 43.0063 27.7918 42.7683 28.1031 42.7683C28.4143 42.7683 28.6523 43.0063 28.6523 43.3176V48.389C28.6523 48.6819 28.396 48.9382 28.1031 48.9382Z" fill="#C4EF17"/>
<path d="M28.0848 6.1699C27.7735 6.1699 27.5355 5.93189 27.5355 5.62065V0.549249C27.5355 0.238008 27.7735 0 28.0848 0C28.396 0 28.634 0.238008 28.634 0.549249V5.62065C28.634 5.91358 28.396 6.1699 28.0848 6.1699Z" fill="#C4EF17"/>
<path d="M28.1031 16.3676C27.7918 16.3676 27.5538 16.1296 27.5538 15.8184V10.6921C27.5538 10.3808 27.7918 10.1428 28.1031 10.1428C28.4143 10.1428 28.6523 10.3808 28.6523 10.6921V15.8184C28.6523 16.1296 28.396 16.3676 28.1031 16.3676Z" fill="#C4EF17"/>
</svg>
