<svg width="58" height="58" viewBox="0 0 58 58" fill="none" xmlns="http://www.w3.org/2000/svg">
<path d="M39.7243 11.3471C39.4238 11.3471 39.194 11.1174 39.194 10.8169C39.194 5.42612 34.8107 1.06048 29.4376 1.06048C24.0468 1.06048 19.6812 5.4438 19.6812 10.8169C19.6812 11.1174 19.4514 11.3471 19.151 11.3471C18.8505 11.3471 18.6207 11.1174 18.6207 10.8169C18.6207 4.84286 23.4813 0 29.4376 0C35.4117 0 40.2545 4.86053 40.2545 10.8169C40.2545 11.0997 40.0247 11.3471 39.7243 11.3471Z" fill="#C4EF17"/>
<path d="M36.0125 11.3472C35.7121 11.3472 35.4823 11.1175 35.4823 10.817C35.4823 7.47647 32.7604 4.75457 29.4199 4.75457C26.0794 4.75457 23.3575 7.47647 23.3575 10.817C23.3575 11.1175 23.1277 11.3472 22.8272 11.3472C22.5268 11.3472 22.297 11.1175 22.297 10.817C22.297 6.89321 25.4961 3.69409 29.4199 3.69409C33.3437 3.69409 36.5428 6.89321 36.5428 10.817C36.5428 11.0998 36.313 11.3472 36.0125 11.3472Z" fill="#C4EF17"/>
<path d="M32.3186 11.3472C32.0181 11.3472 31.7883 11.1174 31.7883 10.817C31.7883 9.52672 30.7278 8.46624 29.4376 8.46624C28.1473 8.46624 27.0868 9.52672 27.0868 10.817C27.0868 11.1174 26.8571 11.3472 26.5566 11.3472C26.2561 11.3472 26.0264 11.1174 26.0264 10.817C26.0264 8.94346 27.5641 7.40576 29.4376 7.40576C31.3111 7.40576 32.8488 8.94346 32.8488 10.817C32.8488 11.0998 32.6014 11.3472 32.3186 11.3472Z" fill="#C4EF17"/>
<path d="M19.1333 22.5175C18.8328 22.5175 18.603 22.2878 18.603 21.9873V18.2756C18.603 17.9751 18.8328 17.7454 19.1333 17.7454C19.4337 17.7454 19.6635 17.9751 19.6635 18.2756V21.9873C19.6635 22.2701 19.4337 22.5175 19.1333 22.5175Z" fill="#C4EF17"/>
<path d="M19.1333 18.8059C18.8328 18.8059 18.603 18.5761 18.603 18.2757V10.7993C18.603 10.4988 18.8328 10.269 19.1333 10.269C19.4337 10.269 19.6635 10.4988 19.6635 10.7993V18.2757C19.6635 18.5761 19.4337 18.8059 19.1333 18.8059Z" fill="#C4EF17"/>
<path d="M19.1333 26.2116C18.8328 26.2116 18.603 25.9818 18.603 25.6814V21.9697C18.603 21.6692 18.8328 21.4395 19.1333 21.4395C19.4337 21.4395 19.6635 21.6692 19.6635 21.9697V25.6814C19.6635 25.9818 19.4337 26.2116 19.1333 26.2116Z" fill="#C4EF17"/>
<path d="M22.8449 18.8059C22.5445 18.8059 22.3147 18.5761 22.3147 18.2757V10.7993C22.3147 10.4988 22.5445 10.269 22.8449 10.269C23.1454 10.269 23.3752 10.4988 23.3752 10.7993V18.2757C23.3752 18.5761 23.1277 18.8059 22.8449 18.8059Z" fill="#C4EF17"/>
<path d="M22.8449 22.5175C22.5445 22.5175 22.3147 22.2878 22.3147 21.9873V18.2756C22.3147 17.9751 22.5445 17.7454 22.8449 17.7454C23.1454 17.7454 23.3752 17.9751 23.3752 18.2756V21.9873C23.3752 22.2701 23.1277 22.5175 22.8449 22.5175Z" fill="#C4EF17"/>
<path d="M26.539 18.8059C26.2386 18.8059 26.0088 18.5761 26.0088 18.2757V10.7993C26.0088 10.4988 26.2386 10.269 26.539 10.269C26.8395 10.269 27.0693 10.4988 27.0693 10.7993V18.2757C27.0693 18.5761 26.8395 18.8059 26.539 18.8059Z" fill="#C4EF17"/>
<path d="M32.3186 18.8059C32.0181 18.8059 31.7883 18.5761 31.7883 18.2757V10.7993C31.7883 10.4988 32.0181 10.269 32.3186 10.269C32.619 10.269 32.8488 10.4988 32.8488 10.7993V18.2757C32.8488 18.5761 32.6014 18.8059 32.3186 18.8059Z" fill="#C4EF17"/>
<path d="M36.0125 18.8059C35.7121 18.8059 35.4823 18.5761 35.4823 18.2757V10.7993C35.4823 10.4988 35.7121 10.269 36.0125 10.269C36.313 10.269 36.5428 10.4988 36.5428 10.7993V18.2757C36.5428 18.5761 36.313 18.8059 36.0125 18.8059Z" fill="#C4EF17"/>
<path d="M39.7242 18.8059C39.4237 18.8059 39.194 18.5761 39.194 18.2757V10.7993C39.194 10.4988 39.4237 10.269 39.7242 10.269C40.0247 10.269 40.2545 10.4988 40.2545 10.7993V18.2757C40.2545 18.5761 40.0247 18.8059 39.7242 18.8059Z" fill="#C4EF17"/>
<path d="M29.4376 57.1599C23.4636 57.1599 18.6207 52.2994 18.6207 46.343C18.6207 46.0425 18.8505 45.8127 19.151 45.8127C19.4514 45.8127 19.6812 46.0425 19.6812 46.343C19.6812 51.7338 24.0645 56.0994 29.4376 56.0994C34.8284 56.0994 39.194 51.7161 39.194 46.343C39.194 46.0425 39.4238 45.8127 39.7243 45.8127C40.0247 45.8127 40.2545 46.0425 40.2545 46.343C40.2545 52.2994 35.394 57.1599 29.4376 57.1599Z" fill="#C4EF17"/>
<path d="M29.4376 53.4481C25.5138 53.4481 22.3147 50.2489 22.3147 46.3252C22.3147 46.0247 22.5445 45.7949 22.8449 45.7949C23.1454 45.7949 23.3752 46.0247 23.3752 46.3252C23.3752 49.6657 26.0971 52.3876 29.4376 52.3876C32.7781 52.3876 35.5 49.6657 35.5 46.3252C35.5 46.0247 35.7298 45.7949 36.0303 45.7949C36.3307 45.7949 36.5605 46.0247 36.5605 46.3252C36.5428 50.2489 33.3614 53.4481 29.4376 53.4481Z" fill="#C4EF17"/>
<path d="M29.4376 49.7364C27.5641 49.7364 26.0264 48.1987 26.0264 46.3252C26.0264 46.0247 26.2561 45.7949 26.5566 45.7949C26.8571 45.7949 27.0868 46.0247 27.0868 46.3252C27.0868 47.6154 28.1473 48.6759 29.4376 48.6759C30.7278 48.6759 31.7883 47.6154 31.7883 46.3252C31.7883 46.0247 32.0181 45.7949 32.3186 45.7949C32.619 45.7949 32.8488 46.0247 32.8488 46.3252C32.8488 48.2164 31.3111 49.7364 29.4376 49.7364Z" fill="#C4EF17"/>
<path d="M19.1333 46.8555C18.8328 46.8555 18.603 46.6257 18.603 46.3252V38.8488C18.603 38.5484 18.8328 38.3186 19.1333 38.3186C19.4337 38.3186 19.6635 38.5484 19.6635 38.8488V46.3252C19.6635 46.6257 19.4337 46.8555 19.1333 46.8555Z" fill="#C4EF17"/>
<path d="M22.8449 46.8555C22.5445 46.8555 22.3147 46.6257 22.3147 46.3252V38.8488C22.3147 38.5484 22.5445 38.3186 22.8449 38.3186C23.1454 38.3186 23.3752 38.5484 23.3752 38.8488V46.3252C23.3752 46.6257 23.1277 46.8555 22.8449 46.8555Z" fill="#C4EF17"/>
<path d="M26.539 46.8555C26.2386 46.8555 26.0088 46.6257 26.0088 46.3252V38.8488C26.0088 38.5484 26.2386 38.3186 26.539 38.3186C26.8395 38.3186 27.0693 38.5484 27.0693 38.8488V46.3252C27.0693 46.6257 26.8395 46.8555 26.539 46.8555Z" fill="#C4EF17"/>
<path d="M32.3186 46.8555C32.0181 46.8555 31.7883 46.6257 31.7883 46.3252V38.8488C31.7883 38.5484 32.0181 38.3186 32.3186 38.3186C32.619 38.3186 32.8488 38.5484 32.8488 38.8488V46.3252C32.8488 46.6257 32.6014 46.8555 32.3186 46.8555Z" fill="#C4EF17"/>
<path d="M36.0125 39.3969C35.7121 39.3969 35.4823 39.1671 35.4823 38.8667V35.155C35.4823 34.8545 35.7121 34.6248 36.0125 34.6248C36.313 34.6248 36.5428 34.8545 36.5428 35.155V38.8667C36.5428 39.1495 36.313 39.3969 36.0125 39.3969Z" fill="#C4EF17"/>
<path d="M36.0125 46.8555C35.7121 46.8555 35.4823 46.6257 35.4823 46.3252V38.8488C35.4823 38.5484 35.7121 38.3186 36.0125 38.3186C36.313 38.3186 36.5428 38.5484 36.5428 38.8488V46.3252C36.5428 46.6257 36.313 46.8555 36.0125 46.8555Z" fill="#C4EF17"/>
<path d="M39.7242 46.8555C39.4237 46.8555 39.194 46.6257 39.194 46.3252V38.8488C39.194 38.5484 39.4237 38.3186 39.7242 38.3186C40.0247 38.3186 40.2545 38.5484 40.2545 38.8488V46.3252C40.2545 46.6257 40.0247 46.8555 39.7242 46.8555Z" fill="#C4EF17"/>
<path d="M39.7242 35.685C39.4237 35.685 39.194 35.4552 39.194 35.1548V31.4431C39.194 31.1426 39.4237 30.9128 39.7242 30.9128C40.0247 30.9128 40.2545 31.1426 40.2545 31.4431V35.1548C40.2545 35.4552 40.0247 35.685 39.7242 35.685Z" fill="#C4EF17"/>
<path d="M39.7242 39.3969C39.4237 39.3969 39.194 39.1671 39.194 38.8667V35.155C39.194 34.8545 39.4237 34.6248 39.7242 34.6248C40.0247 34.6248 40.2545 34.8545 40.2545 35.155V38.8667C40.2545 39.1495 40.0247 39.3969 39.7242 39.3969Z" fill="#C4EF17"/>
<path d="M47.183 39.3967C46.8825 39.3967 46.6527 39.167 46.6527 38.8665C46.6527 38.566 46.8825 38.3363 47.183 38.3363C52.5737 38.3363 56.9394 33.9529 56.9394 28.5798C56.9394 23.2067 52.5561 18.8234 47.183 18.8234C46.8825 18.8234 46.6527 18.5936 46.6527 18.2932C46.6527 17.9927 46.8825 17.7629 47.183 17.7629C53.157 17.7629 57.9998 22.6235 57.9998 28.5798C58.0175 34.5362 53.157 39.3967 47.183 39.3967Z" fill="#C4EF17"/>
<path d="M47.183 35.6852C46.8825 35.6852 46.6527 35.4555 46.6527 35.155C46.6527 34.8545 46.8825 34.6248 47.183 34.6248C50.5235 34.6248 53.2453 31.9029 53.2453 28.5623C53.2453 25.2218 50.5235 22.4999 47.183 22.4999C46.8825 22.4999 46.6527 22.2702 46.6527 21.9697C46.6527 21.6692 46.8825 21.4395 47.183 21.4395C51.1067 21.4395 54.3058 24.6386 54.3058 28.5623C54.3058 32.4861 51.1067 35.6852 47.183 35.6852Z" fill="#C4EF17"/>
<path d="M47.183 31.9735C46.8825 31.9735 46.6527 31.7438 46.6527 31.4433C46.6527 31.1428 46.8825 30.9131 47.183 30.9131C48.4732 30.9131 49.5336 29.8526 49.5336 28.5623C49.5336 27.2721 48.4732 26.2116 47.183 26.2116C46.8825 26.2116 46.6527 25.9818 46.6527 25.6814C46.6527 25.3809 46.8825 25.1511 47.183 25.1511C49.0565 25.1511 50.5941 26.6888 50.5941 28.5623C50.6118 30.4535 49.0741 31.9735 47.183 31.9735Z" fill="#C4EF17"/>
<path d="M47.183 18.8058H39.7242C39.4237 18.8058 39.194 18.5761 39.194 18.2756C39.194 17.9751 39.4237 17.7454 39.7242 17.7454H47.183C47.4834 17.7454 47.7132 17.9751 47.7132 18.2756C47.7132 18.5761 47.4834 18.8058 47.183 18.8058Z" fill="#C4EF17"/>
<path d="M36.0126 18.8058H32.3009C32.0004 18.8058 31.7706 18.5761 31.7706 18.2756C31.7706 17.9751 32.0004 17.7454 32.3009 17.7454H36.0126C36.313 17.7454 36.5428 17.9751 36.5428 18.2756C36.5428 18.5761 36.313 18.8058 36.0126 18.8058Z" fill="#C4EF17"/>
<path d="M39.7242 18.8058H36.0125C35.7121 18.8058 35.4823 18.5761 35.4823 18.2756C35.4823 17.9751 35.7121 17.7454 36.0125 17.7454H39.7242C40.0247 17.7454 40.2545 17.9751 40.2545 18.2756C40.2545 18.5761 40.0247 18.8058 39.7242 18.8058Z" fill="#C4EF17"/>
<path d="M39.7242 22.5175H36.0125C35.7121 22.5175 35.4823 22.2877 35.4823 21.9873C35.4823 21.6868 35.7121 21.457 36.0125 21.457H39.7242C40.0247 21.457 40.2545 21.6868 40.2545 21.9873C40.2545 22.2701 40.0247 22.5175 39.7242 22.5175Z" fill="#C4EF17"/>
<path d="M47.183 22.5175H39.7242C39.4237 22.5175 39.194 22.2877 39.194 21.9873C39.194 21.6868 39.4237 21.457 39.7242 21.457H47.183C47.4834 21.457 47.7132 21.6868 47.7132 21.9873C47.7132 22.2701 47.4834 22.5175 47.183 22.5175Z" fill="#C4EF17"/>
<path d="M47.183 26.2116H39.7242C39.4237 26.2116 39.194 25.9818 39.194 25.6814C39.194 25.3809 39.4237 25.1511 39.7242 25.1511H47.183C47.4834 25.1511 47.7132 25.3809 47.7132 25.6814C47.7132 25.9818 47.4834 26.2116 47.183 26.2116Z" fill="#C4EF17"/>
<path d="M47.183 31.9733H39.7242C39.4237 31.9733 39.194 31.7436 39.194 31.4431C39.194 31.1426 39.4237 30.9128 39.7242 30.9128H47.183C47.4834 30.9128 47.7132 31.1426 47.7132 31.4431C47.7132 31.7436 47.4834 31.9733 47.183 31.9733Z" fill="#C4EF17"/>
<path d="M47.183 35.6852H39.7242C39.4237 35.6852 39.194 35.4555 39.194 35.155C39.194 34.8545 39.4237 34.6248 39.7242 34.6248H47.183C47.4834 34.6248 47.7132 34.8545 47.7132 35.155C47.7132 35.4555 47.4834 35.6852 47.183 35.6852Z" fill="#C4EF17"/>
<path d="M47.183 39.3967H39.7242C39.4237 39.3967 39.194 39.1669 39.194 38.8664C39.194 38.566 39.4237 38.3362 39.7242 38.3362H47.183C47.4834 38.3362 47.7132 38.566 47.7132 38.8664C47.7132 39.1492 47.4834 39.3967 47.183 39.3967Z" fill="#C4EF17"/>
<path d="M11.6746 39.3967C5.70052 39.3967 0.857666 34.5362 0.857666 28.5798C0.857666 22.6058 5.71819 17.7629 11.6746 17.7629C11.975 17.7629 12.2048 17.9927 12.2048 18.2932C12.2048 18.5936 11.975 18.8234 11.6746 18.8234C6.28378 18.8234 1.91815 23.2067 1.91815 28.5798C1.91815 33.9529 6.30146 38.3363 11.6746 38.3363C11.975 38.3363 12.2048 38.566 12.2048 38.8665C12.2048 39.1493 11.9574 39.3967 11.6746 39.3967Z" fill="#C4EF17"/>
<path d="M11.6745 35.6852C7.75074 35.6852 4.55164 32.4861 4.55164 28.5623C4.55164 24.6386 7.75074 21.4395 11.6745 21.4395C11.975 21.4395 12.2048 21.6692 12.2048 21.9697C12.2048 22.2702 11.975 22.4999 11.6745 22.4999C8.334 22.4999 5.61212 25.2218 5.61212 28.5623C5.61212 31.9029 8.334 34.6248 11.6745 34.6248C11.975 34.6248 12.2048 34.8545 12.2048 35.155C12.2048 35.4555 11.9573 35.6852 11.6745 35.6852Z" fill="#C4EF17"/>
<path d="M11.6746 31.9735C9.80111 31.9735 8.26343 30.4358 8.26343 28.5623C8.26343 26.6888 9.80111 25.1511 11.6746 25.1511C11.9751 25.1511 12.2049 25.3809 12.2049 25.6814C12.2049 25.9818 11.9751 26.2116 11.6746 26.2116C10.3844 26.2116 9.32391 27.2721 9.32391 28.5623C9.32391 29.8526 10.3844 30.9131 11.6746 30.9131C11.9751 30.9131 12.2049 31.1428 12.2049 31.4433C12.2049 31.7438 11.9574 31.9735 11.6746 31.9735Z" fill="#C4EF17"/>
<path d="M19.1333 18.8058H11.6745C11.3741 18.8058 11.1443 18.5761 11.1443 18.2756C11.1443 17.9751 11.3741 17.7454 11.6745 17.7454H19.1333C19.4337 17.7454 19.6635 17.9751 19.6635 18.2756C19.6635 18.5761 19.4337 18.8058 19.1333 18.8058Z" fill="#C4EF17"/>
<path d="M19.1333 22.5175H11.6745C11.3741 22.5175 11.1443 22.2877 11.1443 21.9873C11.1443 21.6868 11.3741 21.457 11.6745 21.457H19.1333C19.4337 21.457 19.6635 21.6868 19.6635 21.9873C19.6635 22.2701 19.4337 22.5175 19.1333 22.5175Z" fill="#C4EF17"/>
<path d="M19.1333 26.2116H11.6745C11.3741 26.2116 11.1443 25.9818 11.1443 25.6814C11.1443 25.3809 11.3741 25.1511 11.6745 25.1511H19.1333C19.4337 25.1511 19.6635 25.3809 19.6635 25.6814C19.6635 25.9818 19.4337 26.2116 19.1333 26.2116Z" fill="#C4EF17"/>
<path d="M19.1333 31.9733H11.6745C11.3741 31.9733 11.1443 31.7436 11.1443 31.4431C11.1443 31.1426 11.3741 30.9128 11.6745 30.9128H19.1333C19.4337 30.9128 19.6635 31.1426 19.6635 31.4431C19.6635 31.7436 19.4337 31.9733 19.1333 31.9733Z" fill="#C4EF17"/>
<path d="M22.8449 35.6852H19.1333C18.8328 35.6852 18.603 35.4555 18.603 35.155C18.603 34.8545 18.8328 34.6248 19.1333 34.6248H22.8449C23.1454 34.6248 23.3752 34.8545 23.3752 35.155C23.3752 35.4555 23.1277 35.6852 22.8449 35.6852Z" fill="#C4EF17"/>
<path d="M19.1333 35.6852H11.6745C11.3741 35.6852 11.1443 35.4555 11.1443 35.155C11.1443 34.8545 11.3741 34.6248 11.6745 34.6248H19.1333C19.4337 34.6248 19.6635 34.8545 19.6635 35.155C19.6635 35.4555 19.4337 35.6852 19.1333 35.6852Z" fill="#C4EF17"/>
<path d="M22.8449 39.3967H19.1333C18.8328 39.3967 18.603 39.1669 18.603 38.8664C18.603 38.566 18.8328 38.3362 19.1333 38.3362H22.8449C23.1454 38.3362 23.3752 38.566 23.3752 38.8664C23.3752 39.1492 23.1277 39.3967 22.8449 39.3967Z" fill="#C4EF17"/>
<path d="M26.5389 39.3967H22.8272C22.5268 39.3967 22.297 39.1669 22.297 38.8664C22.297 38.566 22.5268 38.3362 22.8272 38.3362H26.5389C26.8394 38.3362 27.0692 38.566 27.0692 38.8664C27.0692 39.1492 26.8394 39.3967 26.5389 39.3967Z" fill="#C4EF17"/>
<path d="M19.1333 39.3967H11.6745C11.3741 39.3967 11.1443 39.1669 11.1443 38.8664C11.1443 38.566 11.3741 38.3362 11.6745 38.3362H19.1333C19.4337 38.3362 19.6635 38.566 19.6635 38.8664C19.6635 39.1492 19.4337 39.3967 19.1333 39.3967Z" fill="#C4EF17"/>
</svg>
