<svg width="77" height="77" viewBox="0 0 77 77" fill="none" xmlns="http://www.w3.org/2000/svg">
<path d="M29.8696 47.1624L34.6821 51.9749L47.5155 39.1416" stroke="black" stroke-width="3" stroke-linecap="round" stroke-linejoin="round"/>
<path d="M32.0833 19.2501H44.9166C51.3333 19.2501 51.3333 16.0417 51.3333 12.8334C51.3333 6.41675 48.125 6.41675 44.9166 6.41675H32.0833C28.875 6.41675 25.6666 6.41675 25.6666 12.8334C25.6666 19.2501 28.875 19.2501 32.0833 19.2501Z" stroke="black" stroke-width="3" stroke-miterlimit="10" stroke-linecap="round" stroke-linejoin="round"/>
<path d="M51.3333 12.8975C62.0171 13.475 67.375 17.4212 67.375 32.0833V51.3333C67.375 64.1666 64.1667 70.5833 48.125 70.5833H28.875C12.8333 70.5833 9.625 64.1666 9.625 51.3333V32.0833C9.625 17.4533 14.9829 13.475 25.6667 12.8975" stroke="black" stroke-width="3" stroke-miterlimit="10" stroke-linecap="round" stroke-linejoin="round"/>
</svg>
