<svg width="77" height="77" viewBox="0 0 77 77" fill="none" xmlns="http://www.w3.org/2000/svg">
<path d="M64.0706 32.0835H12.7373V57.7502C12.7373 67.3752 15.9456 70.5835 25.5706 70.5835H51.2373C60.8623 70.5835 64.0706 67.3752 64.0706 57.7502V32.0835Z" stroke="black" stroke-width="3" stroke-miterlimit="10" stroke-linecap="round" stroke-linejoin="round"/>
<path d="M68.9788 22.4582V25.6665C68.9788 29.1957 67.2784 32.0832 62.5622 32.0832H14.4372C9.52842 32.0832 8.02051 29.1957 8.02051 25.6665V22.4582C8.02051 18.929 9.52842 16.0415 14.4372 16.0415H62.5622C67.2784 16.0415 68.9788 18.929 68.9788 22.4582Z" stroke="black" stroke-width="3" stroke-miterlimit="10" stroke-linecap="round" stroke-linejoin="round"/>
<path d="M37.3446 16.0418H19.6346C18.5438 14.8547 18.5758 13.026 19.7308 11.871L24.2867 7.31512C25.4738 6.12803 27.4308 6.12803 28.6179 7.31512L37.3446 16.0418Z" stroke="black" stroke-width="3" stroke-miterlimit="10" stroke-linecap="round" stroke-linejoin="round"/>
<path d="M57.3329 16.0418H39.6229L48.3496 7.31512C49.5367 6.12803 51.4938 6.12803 52.6808 7.31512L57.2367 11.871C58.3917 13.026 58.4238 14.8547 57.3329 16.0418Z" stroke="black" stroke-width="3" stroke-miterlimit="10" stroke-linecap="round" stroke-linejoin="round"/>
<path d="M28.6824 32.0833V48.5741C28.6824 51.1408 31.5057 52.6487 33.6553 51.2691L36.6711 49.2799C37.762 48.5741 39.1415 48.5741 40.2003 49.2799L43.0557 51.2049C45.1732 52.6166 48.0286 51.1087 48.0286 48.542V32.0833H28.6824Z" stroke="black" stroke-width="3" stroke-miterlimit="10" stroke-linecap="round" stroke-linejoin="round"/>
</svg>
