<svg width="77" height="77" viewBox="0 0 77 77" fill="none" xmlns="http://www.w3.org/2000/svg">
<path d="M58.1992 69.3641C55.3758 70.1983 52.0392 70.5833 48.125 70.5833H28.875C24.9608 70.5833 21.6242 70.1983 18.8008 69.3641C19.5067 61.0225 28.0729 54.4453 38.5 54.4453C48.9271 54.4453 57.4933 61.0225 58.1992 69.3641Z" stroke="black" stroke-width="3" stroke-linecap="round" stroke-linejoin="round"/>
<path d="M48.125 6.41675H28.875C12.8334 6.41675 6.41669 12.8334 6.41669 28.8751V48.1251C6.41669 60.2526 10.0742 66.8938 18.8009 69.3642C19.5067 61.0226 28.0729 54.4454 38.5 54.4454C48.9271 54.4454 57.4934 61.0226 58.1992 69.3642C66.9259 66.8938 70.5834 60.2526 70.5834 48.1251V28.8751C70.5834 12.8334 64.1667 6.41675 48.125 6.41675ZM38.5 45.4621C32.1475 45.4621 27.0142 40.2968 27.0142 33.9443C27.0142 27.5918 32.1475 22.4584 38.5 22.4584C44.8525 22.4584 49.9859 27.5918 49.9859 33.9443C49.9859 40.2968 44.8525 45.4621 38.5 45.4621Z" stroke="black" stroke-width="3" stroke-linecap="round" stroke-linejoin="round"/>
<path d="M49.9858 33.9441C49.9858 40.2966 44.8525 45.4619 38.5 45.4619C32.1475 45.4619 27.0142 40.2966 27.0142 33.9441C27.0142 27.5916 32.1475 22.4583 38.5 22.4583C44.8525 22.4583 49.9858 27.5916 49.9858 33.9441Z" stroke="black" stroke-width="3" stroke-linecap="round" stroke-linejoin="round"/>
</svg>
