<svg width="77" height="77" viewBox="0 0 77 77" fill="none" xmlns="http://www.w3.org/2000/svg">
<path d="M29.3883 34.8747C29.0675 34.8426 28.6825 34.8426 28.3296 34.8747C20.6938 34.618 14.63 28.3617 14.63 20.6617C14.63 12.8013 20.9825 6.41675 28.875 6.41675C36.7354 6.41675 43.12 12.8013 43.12 20.6617C43.0879 28.3617 37.0242 34.618 29.3883 34.8747Z" stroke="black" stroke-width="3" stroke-linecap="round" stroke-linejoin="round"/>
<path d="M52.6488 12.8333C58.8729 12.8333 63.8779 17.8703 63.8779 24.0624C63.8779 30.1262 59.0654 35.067 53.0659 35.2916C52.8092 35.2595 52.5204 35.2595 52.2317 35.2916" stroke="black" stroke-width="3" stroke-linecap="round" stroke-linejoin="round"/>
<path d="M13.3467 46.7133C5.58252 51.9108 5.58252 60.3808 13.3467 65.5462C22.1696 71.4495 36.6392 71.4495 45.4621 65.5462C53.2263 60.3487 53.2263 51.8787 45.4621 46.7133C36.6713 40.842 22.2017 40.842 13.3467 46.7133Z" stroke="black" stroke-width="3" stroke-linecap="round" stroke-linejoin="round"/>
<path d="M58.8408 64.1667C61.1508 63.6855 63.3325 62.7551 65.1292 61.3755C70.1342 57.6217 70.1342 51.4297 65.1292 47.6759C63.3646 46.3284 61.215 45.4301 58.9371 44.9167" stroke="black" stroke-width="3" stroke-linecap="round" stroke-linejoin="round"/>
</svg>
