<svg width="77" height="77" viewBox="0 0 77 77" fill="none" xmlns="http://www.w3.org/2000/svg">
<path d="M38.5 70.5832C56.2192 70.5832 70.5834 56.219 70.5834 38.4998C70.5834 20.7807 56.2192 6.4165 38.5 6.4165C20.7809 6.4165 6.41669 20.7807 6.41669 38.4998C6.41669 56.219 20.7809 70.5832 38.5 70.5832Z" stroke="white" stroke-width="1.5" stroke-linecap="round" stroke-linejoin="round"/>
<path d="M25.6667 9.625H28.875C22.6187 28.3617 22.6187 48.6383 28.875 67.375H25.6667" stroke="white" stroke-width="1.5" stroke-linecap="round" stroke-linejoin="round"/>
<path d="M48.125 9.625C54.3812 28.3617 54.3812 48.6383 48.125 67.375" stroke="white" stroke-width="1.5" stroke-linecap="round" stroke-linejoin="round"/>
<path d="M9.625 51.3333V48.125C28.3617 54.3812 48.6383 54.3812 67.375 48.125V51.3333" stroke="white" stroke-width="1.5" stroke-linecap="round" stroke-linejoin="round"/>
<path d="M9.625 28.8748C28.3617 22.6186 48.6383 22.6186 67.375 28.8748" stroke="white" stroke-width="1.5" stroke-linecap="round" stroke-linejoin="round"/>
</svg>
