<svg width="77" height="77" viewBox="0 0 77 77" fill="none" xmlns="http://www.w3.org/2000/svg">
<path d="M67.6317 27.5274V49.4723C67.6317 53.0657 65.7067 56.4025 62.5946 58.2312L43.5371 69.2358C40.425 71.0325 36.575 71.0325 33.4308 69.2358L14.3733 58.2312C11.2612 56.4346 9.33624 53.0978 9.33624 49.4723V27.5274C9.33624 23.9341 11.2612 20.5973 14.3733 18.7686L33.4308 7.764C36.5429 5.96734 40.3929 5.96734 43.5371 7.764L62.5946 18.7686C65.7067 20.5973 67.6317 23.902 67.6317 27.5274Z" stroke="white" stroke-width="1.5" stroke-linecap="round" stroke-linejoin="round"/>
<path d="M38.5 35.2916C42.6285 35.2916 45.9754 31.9447 45.9754 27.8161C45.9754 23.6875 42.6285 20.3408 38.5 20.3408C34.3714 20.3408 31.0246 23.6875 31.0246 27.8161C31.0246 31.9447 34.3714 35.2916 38.5 35.2916Z" stroke="white" stroke-width="1.5" stroke-linecap="round" stroke-linejoin="round"/>
<path d="M51.3333 53.4507C51.3333 47.6757 45.5904 42.9917 38.5 42.9917C31.4096 42.9917 25.6667 47.6757 25.6667 53.4507" stroke="white" stroke-width="1.5" stroke-linecap="round" stroke-linejoin="round"/>
</svg>
