<?xml version="1.0" encoding="UTF-8"?>
<svg id="Layer_1" data-name="Layer 1" xmlns="http://www.w3.org/2000/svg" version="1.1" xmlns:xlink="http://www.w3.org/1999/xlink" viewBox="0 0 24 24">
  <defs>
    <style>
      .cls-1 {
        stroke: #103cfb;
        stroke-linecap: round;
        stroke-linejoin: round;
        stroke-width: 1.5px;
      }

      .cls-1, .cls-2 {
        fill: none;
      }

      .cls-2 {
        stroke-width: 0px;
      }

      .cls-3 {
        clip-path: url(#clippath);
      }
    </style>
    <clipPath id="clippath">
      <rect class="cls-2" width="24" height="24"/>
    </clipPath>
  </defs>
  <g class="cls-3">
    <g>
      <path class="cls-1" d="M11,2h-2C4,2,2,4,2,9v6c0,5,2,7,7,7h6c5,0,7-2,7-7v-2"/>
      <path class="cls-1" d="M21.9,3.6c-1.2,3.1-4.3,7.2-6.9,9.3l-1.6,1.3c-.2.2-.4.3-.6.4,0-.2,0-.3,0-.5,0-.7-.4-1.3-.9-1.8-.6-.6-1.2-.9-1.9-1-.2,0-.3,0-.5,0,0-.2.2-.5.4-.7l1.3-1.6c2.1-2.6,6.3-5.7,9.3-6.9.5-.2.9,0,1.2.2.3.3.4.8.2,1.2Z"/>
      <path class="cls-1" d="M12.8,14.5c0,.9-.3,1.7-1,2.4-.5.5-1.1.8-1.9.9l-2,.2c-1.1.1-2-.8-1.9-1.9l.2-2c.2-1.8,1.7-2.9,3.2-2.9.2,0,.3,0,.5,0,.7,0,1.3.4,1.9.9s.8,1.2.9,1.8c0,.2,0,.3,0,.5Z"/>
      <path class="cls-1" d="M15.8,12c0-2.1-1.7-3.8-3.8-3.8"/>
    </g>
  </g>
</svg>