<svg width="40" height="40" viewBox="0 0 40 40" fill="none" xmlns="http://www.w3.org/2000/svg">
<path d="M28.333 16.6666H31.6663C34.9997 16.6666 36.6663 14.9999 36.6663 11.6666V8.33325C36.6663 4.99992 34.9997 3.33325 31.6663 3.33325H28.333C24.9997 3.33325 23.333 4.99992 23.333 8.33325V11.6666C23.333 14.9999 24.9997 16.6666 28.333 16.6666Z" stroke="#868686" stroke-width="1.5" stroke-miterlimit="10" stroke-linecap="round" stroke-linejoin="round"/>
<path d="M8.33301 36.6666H11.6663C14.9997 36.6666 16.6663 34.9999 16.6663 31.6666V28.3333C16.6663 24.9999 14.9997 23.3333 11.6663 23.3333H8.33301C4.99967 23.3333 3.33301 24.9999 3.33301 28.3333V31.6666C3.33301 34.9999 4.99967 36.6666 8.33301 36.6666Z" stroke="#868686" stroke-width="1.5" stroke-miterlimit="10" stroke-linecap="round" stroke-linejoin="round"/>
<path d="M9.99967 16.6666C13.6816 16.6666 16.6663 13.6818 16.6663 9.99992C16.6663 6.31802 13.6816 3.33325 9.99967 3.33325C6.31778 3.33325 3.33301 6.31802 3.33301 9.99992C3.33301 13.6818 6.31778 16.6666 9.99967 16.6666Z" stroke="white" stroke-width="1.5" stroke-miterlimit="10" stroke-linecap="round" stroke-linejoin="round"/>
<path d="M29.9997 36.6666C33.6816 36.6666 36.6663 33.6818 36.6663 29.9999C36.6663 26.318 33.6816 23.3333 29.9997 23.3333C26.3178 23.3333 23.333 26.318 23.333 29.9999C23.333 33.6818 26.3178 36.6666 29.9997 36.6666Z" stroke="white" stroke-width="1.5" stroke-miterlimit="10" stroke-linecap="round" stroke-linejoin="round"/>
</svg>
