<svg width="34" height="34" viewBox="0 0 34 34" fill="none" xmlns="http://www.w3.org/2000/svg">
<path opacity="0.4" d="M15.5834 2.83325H12.75C5.66671 2.83325 2.83337 5.66659 2.83337 12.7499V21.2499C2.83337 28.3333 5.66671 31.1666 12.75 31.1666H21.25C28.3334 31.1666 31.1667 28.3333 31.1667 21.2499V18.4166" stroke="#292D32" stroke-width="1.5" stroke-linecap="round" stroke-linejoin="round"/>
<path d="M22.7233 4.27845L11.56 15.4418C11.135 15.8668 10.71 16.7026 10.625 17.3118L10.0158 21.5759C9.78912 23.1201 10.88 24.1968 12.4241 23.9843L16.6883 23.3751C17.2833 23.2901 18.1191 22.8651 18.5583 22.4401L29.7216 11.2768C31.6483 9.35011 32.5549 7.11178 29.7216 4.27845C26.8883 1.44511 24.65 2.35178 22.7233 4.27845Z" stroke="#292D32" stroke-width="1.5" stroke-miterlimit="10" stroke-linecap="round" stroke-linejoin="round"/>
<path opacity="0.4" d="M21.1226 5.87915C22.0717 9.26498 24.7209 11.9142 28.1209 12.8775" stroke="#292D32" stroke-width="1.5" stroke-miterlimit="10" stroke-linecap="round" stroke-linejoin="round"/>
</svg>
