<svg width="26" height="33" viewBox="0 0 26 33" fill="none" xmlns="http://www.w3.org/2000/svg">
<path d="M25 8.75V24.25C25 30.45 23.5 32 17.5 32H8.5C2.5 32 1 30.45 1 24.25V8.75C1 2.55 2.5 1 8.5 1H17.5C23.5 1 25 2.55 25 8.75Z" stroke="#292D32" stroke-width="1.5" stroke-linecap="round" stroke-linejoin="round"/>
<path opacity="0.4" d="M16 6.42505H10" stroke="#292D32" stroke-width="1.5" stroke-linecap="round" stroke-linejoin="round"/>
<path opacity="0.4" d="M13 27.505C14.2841 27.505 15.325 26.4293 15.325 25.1025C15.325 23.7756 14.2841 22.7 13 22.7C11.7159 22.7 10.675 23.7756 10.675 25.1025C10.675 26.4293 11.7159 27.505 13 27.505Z" stroke="#292D32" stroke-width="1.5" stroke-linecap="round" stroke-linejoin="round"/>
</svg>
