<svg width="38" height="38" viewBox="0 0 38 38" fill="none" xmlns="http://www.w3.org/2000/svg">
<g opacity="0.4">
<path d="M17.0206 35.625H21.0106C22.5306 35.625 23.5122 34.5483 23.2272 33.2341L22.5781 30.3684H15.4531L14.8039 33.2341C14.5189 34.4691 15.5956 35.625 17.0206 35.625Z" stroke="#292D32" stroke-width="1.5" stroke-linecap="round" stroke-linejoin="round"/>
<path d="M22.5784 30.3525L25.3176 27.9142C26.8534 26.5525 26.9168 25.6024 25.6976 24.0666L20.8684 17.9392C19.8551 16.6567 18.1926 16.6567 17.1792 17.9392L12.3501 24.0666C11.1309 25.6024 11.1309 26.6 12.7301 27.9142L15.4692 30.3525" stroke="#292D32" stroke-width="1.5" stroke-linecap="round" stroke-linejoin="round"/>
<path d="M19.0155 17.6067V21.6126" stroke="#292D32" stroke-width="1.5" stroke-linecap="round" stroke-linejoin="round"/>
</g>
<path d="M17.6542 8.21761L16.4192 6.98256C15.675 6.2384 15.675 5.03514 16.4192 4.29097L17.6542 3.05593C18.3984 2.31176 19.6017 2.31176 20.3459 3.05593L21.5809 4.29097C22.325 5.03514 22.325 6.2384 21.5809 6.98256L20.3459 8.21761C19.6017 8.96178 18.3984 8.96178 17.6542 8.21761Z" stroke="#292D32" stroke-width="1.5" stroke-linecap="round" stroke-linejoin="round"/>
<path d="M30.7959 15.5325H32.5375C33.5825 15.5325 34.4375 16.3875 34.4375 17.4325V19.1741C34.4375 20.2191 33.5825 21.0742 32.5375 21.0742H30.7959C29.7509 21.0742 28.8959 20.2191 28.8959 19.1741V17.4325C28.8959 16.3875 29.7509 15.5325 30.7959 15.5325Z" stroke="#292D32" stroke-width="1.5" stroke-linecap="round" stroke-linejoin="round"/>
<path d="M7.20417 15.5325H5.4625C4.4175 15.5325 3.5625 16.3875 3.5625 17.4325V19.1741C3.5625 20.2191 4.4175 21.0742 5.4625 21.0742H7.20417C8.24917 21.0742 9.10417 20.2191 9.10417 19.1741V17.4325C9.10417 16.3875 8.24917 15.5325 7.20417 15.5325Z" stroke="#292D32" stroke-width="1.5" stroke-linecap="round" stroke-linejoin="round"/>
<path d="M29.355 15.9917L20.9634 7.6001" stroke="#292D32" stroke-width="1.5" stroke-linecap="round" stroke-linejoin="round"/>
<path d="M8.64502 15.9917L17.0367 7.6001" stroke="#292D32" stroke-width="1.5" stroke-linecap="round" stroke-linejoin="round"/>
</svg>
