<svg width="6" height="7" viewBox="0 0 6 7" fill="none" xmlns="http://www.w3.org/2000/svg">
<path d="M5.63753 2.87583L4.5063 2.26381C4.38799 2.19984 4.29094 2.10269 4.22704 1.98425L3.60691 0.85183C3.54658 0.743121 3.45782 0.65295 3.35012 0.590984C3.24241 0.529018 3.11983 0.4976 2.99563 0.500143C2.8716 0.498551 2.74945 0.530317 2.64191 0.592186C2.53437 0.654055 2.4454 0.743754 2.38434 0.85183L1.7643 1.98425C1.70376 2.10219 1.60961 2.19947 1.49378 2.26381L0.362553 2.87583C0.25273 2.93666 0.16118 3.02578 0.0974355 3.13402C0.0336912 3.24225 0 3.36564 0 3.49128C0 3.61693 0.0336912 3.74023 0.0974355 3.84846C0.16118 3.9567 0.25273 4.04591 0.362553 4.10673L1.49378 4.72742C1.60961 4.79177 1.70376 4.88904 1.7643 5.00699L2.38434 6.13941C2.44425 6.24912 2.53274 6.34057 2.64036 6.40403C2.74798 6.46749 2.87072 6.50066 2.99563 6.49994C3.12072 6.50163 3.24387 6.46888 3.35166 6.40532C3.45945 6.34175 3.54775 6.24975 3.60691 6.13941L4.22704 5.00699C4.29094 4.88855 4.38799 4.7914 4.5063 4.72742L5.63753 4.10673C5.74736 4.04591 5.83891 3.9567 5.90265 3.84846C5.96639 3.74023 6 3.61693 6 3.49128C6 3.36564 5.96639 3.24225 5.90265 3.13402C5.83891 3.02578 5.74736 2.93666 5.63753 2.87583Z" fill="#1D2026"/>
</svg>
