<svg width="38" height="38" viewBox="0 0 38 38" fill="none" xmlns="http://www.w3.org/2000/svg">
<path d="M17.0207 35.6252H21.0107C22.5307 35.6252 23.5124 34.5486 23.2274 33.2344L22.5782 30.3687H15.4532L14.804 33.2344C14.519 34.4694 15.5957 35.6252 17.0207 35.6252Z" stroke="#B2B6B8" stroke-width="1.5" stroke-linecap="round" stroke-linejoin="round"/>
<path d="M22.5785 30.3528L25.3177 27.9144C26.8535 26.5527 26.9169 25.6026 25.6977 24.0668L20.8685 17.9394C19.8552 16.6569 18.1927 16.6569 17.1794 17.9394L12.3502 24.0668C11.131 25.6026 11.131 26.6002 12.7302 27.9144L15.4694 30.3528" stroke="#B2B6B8" stroke-width="1.5" stroke-linecap="round" stroke-linejoin="round"/>
<path d="M19.0156 17.6069V21.6128" stroke="#B2B6B8" stroke-width="1.5" stroke-linecap="round" stroke-linejoin="round"/>
<path d="M17.6542 8.21737L16.4192 6.98232C15.675 6.23815 15.675 5.0349 16.4192 4.29073L17.6542 3.05568C18.3984 2.31152 19.6017 2.31152 20.3459 3.05568L21.5809 4.29073C22.325 5.0349 22.325 6.23815 21.5809 6.98232L20.3459 8.21737C19.6017 8.96153 18.3984 8.96153 17.6542 8.21737Z" stroke="#B2B6B8" stroke-width="1.5" stroke-linecap="round" stroke-linejoin="round"/>
<path d="M30.7957 15.5327H32.5374C33.5824 15.5327 34.4374 16.3877 34.4374 17.4327V19.1744C34.4374 20.2194 33.5824 21.0745 32.5374 21.0745H30.7957C29.7507 21.0745 28.8958 20.2194 28.8958 19.1744V17.4327C28.8958 16.3877 29.7507 15.5327 30.7957 15.5327Z" stroke="#B2B6B8" stroke-width="1.5" stroke-linecap="round" stroke-linejoin="round"/>
<path d="M7.20417 15.5327H5.4625C4.4175 15.5327 3.5625 16.3877 3.5625 17.4327V19.1744C3.5625 20.2194 4.4175 21.0745 5.4625 21.0745H7.20417C8.24917 21.0745 9.10417 20.2194 9.10417 19.1744V17.4327C9.10417 16.3877 8.24917 15.5327 7.20417 15.5327Z" stroke="#B2B6B8" stroke-width="1.5" stroke-linecap="round" stroke-linejoin="round"/>
<path d="M29.355 15.9917L20.9634 7.6001" stroke="#B2B6B8" stroke-width="1.5" stroke-linecap="round" stroke-linejoin="round"/>
<path d="M8.64502 15.9917L17.0367 7.6001" stroke="#B2B6B8" stroke-width="1.5" stroke-linecap="round" stroke-linejoin="round"/>
</svg>
