<svg width="26" height="33" viewBox="0 0 26 33" fill="none" xmlns="http://www.w3.org/2000/svg">
<path d="M25 8.75V24.25C25 30.45 23.5 32 17.5 32H8.5C2.5 32 1 30.45 1 24.25V8.75C1 2.55 2.5 1 8.5 1H17.5C23.5 1 25 2.55 25 8.75Z" stroke="#B2B6B8" stroke-width="1.5" stroke-linecap="round" stroke-linejoin="round"/>
<path d="M16 6.4248H10" stroke="#B2B6B8" stroke-width="1.5" stroke-linecap="round" stroke-linejoin="round"/>
<path d="M13 27.5052C14.2841 27.5052 15.325 26.4296 15.325 25.1027C15.325 23.7758 14.2841 22.7002 13 22.7002C11.716 22.7002 10.675 23.7758 10.675 25.1027C10.675 26.4296 11.716 27.5052 13 27.5052Z" stroke="#B2B6B8" stroke-width="1.5" stroke-linecap="round" stroke-linejoin="round"/>
</svg>
