<svg width="34" height="34" viewBox="0 0 34 34" fill="none" xmlns="http://www.w3.org/2000/svg">
<path d="M15.5833 2.8335H12.7499C5.66659 2.8335 2.83325 5.66683 2.83325 12.7502V21.2502C2.83325 28.3335 5.66659 31.1668 12.7499 31.1668H21.2499C28.3333 31.1668 31.1666 28.3335 31.1666 21.2502V18.4168" stroke="#B2B6B8" stroke-width="1.5" stroke-linecap="round" stroke-linejoin="round"/>
<path d="M22.7234 4.27845L11.5601 15.4418C11.1351 15.8668 10.7101 16.7026 10.6251 17.3118L10.0159 21.5759C9.78924 23.1201 10.8801 24.1968 12.4242 23.9843L16.6884 23.3751C17.2834 23.2901 18.1192 22.8651 18.5584 22.4401L29.7217 11.2768C31.6484 9.35011 32.5551 7.11178 29.7217 4.27845C26.8884 1.44511 24.6501 2.35178 22.7234 4.27845Z" stroke="#B2B6B8" stroke-width="1.5" stroke-miterlimit="10" stroke-linecap="round" stroke-linejoin="round"/>
<path opacity="0.4" d="M21.1226 5.87939C22.0717 9.26523 24.7209 11.9144 28.1209 12.8777" stroke="#B2B6B8" stroke-width="1.5" stroke-miterlimit="10" stroke-linecap="round" stroke-linejoin="round"/>
</svg>
