<svg width="77" height="77" viewBox="0 0 77 77" fill="none" xmlns="http://www.w3.org/2000/svg">
<path d="M34.4891 72.1875H42.5741C45.6541 72.1875 47.6433 70.0058 47.0658 67.3429L45.7504 61.536H31.3129L29.9975 67.3429C29.42 69.8454 31.6016 72.1875 34.4891 72.1875Z" stroke="white" stroke-width="1.5" stroke-linecap="round" stroke-linejoin="round"/>
<path d="M45.7509 61.504L51.3014 56.563C54.4134 53.8038 54.5418 51.8787 52.0714 48.7666L42.2859 36.3506C40.2326 33.7518 36.8639 33.7518 34.8105 36.3506L25.0251 48.7666C22.5547 51.8787 22.5547 53.9001 25.7951 56.563L31.3455 61.504" stroke="white" stroke-width="1.5" stroke-linecap="round" stroke-linejoin="round"/>
<path d="M38.5312 35.6766V43.7938" stroke="white" stroke-width="1.5" stroke-linecap="round" stroke-linejoin="round"/>
<path d="M35.7731 16.6513L33.2706 14.1487C31.7627 12.6408 31.7627 10.2026 33.2706 8.69469L35.7731 6.19209C37.281 4.68418 39.7193 4.68418 41.2272 6.19209L43.7297 8.69469C45.2377 10.2026 45.2377 12.6408 43.7297 14.1487L41.2272 16.6513C39.7193 18.1592 37.281 18.1592 35.7731 16.6513Z" stroke="white" stroke-width="1.5" stroke-linecap="round" stroke-linejoin="round"/>
<path d="M62.4022 31.4738H65.9314C68.0489 31.4738 69.7814 33.2063 69.7814 35.3238V38.8529C69.7814 40.9704 68.0489 42.7031 65.9314 42.7031H62.4022C60.2847 42.7031 58.5522 40.9704 58.5522 38.8529V35.3238C58.5522 33.2063 60.2847 31.4738 62.4022 31.4738Z" stroke="white" stroke-width="1.5" stroke-linecap="round" stroke-linejoin="round"/>
<path d="M14.5979 31.4738H11.0687C8.95124 31.4738 7.21875 33.2063 7.21875 35.3238V38.8529C7.21875 40.9704 8.95124 42.7031 11.0687 42.7031H14.5979C16.7154 42.7031 18.4479 40.9704 18.4479 38.8529V35.3238C18.4479 33.2063 16.7154 31.4738 14.5979 31.4738Z" stroke="white" stroke-width="1.5" stroke-linecap="round" stroke-linejoin="round"/>
<path d="M59.4827 32.404L42.4785 15.3999" stroke="white" stroke-width="1.5" stroke-linecap="round" stroke-linejoin="round"/>
<path d="M17.5176 32.404L34.5218 15.3999" stroke="white" stroke-width="1.5" stroke-linecap="round" stroke-linejoin="round"/>
</svg>
