<?xml version="1.0" standalone="no"?>
<!DOCTYPE svg PUBLIC "-//W3C//DTD SVG 20010904//EN"
 "http://www.w3.org/TR/2001/REC-SVG-20010904/DTD/svg10.dtd">
<svg version="1.0" xmlns="http://www.w3.org/2000/svg"
 width="329.000000pt" height="442.000000pt" viewBox="0 0 329.000000 442.000000"
 preserveAspectRatio="xMidYMid meet">

<g transform="translate(0.000000,442.000000) scale(0.100000,-0.100000)"
fill="#000000" stroke="none">
<path d="M2990 4378 c-19 -5 -39 -13 -44 -18 -4 -4 12 -86 37 -182 121 -459
163 -791 154 -1212 -6 -268 -22 -407 -73 -613 -224 -912 -939 -1559 -2024
-1832 -157 -39 -407 -87 -415 -79 -3 2 -9 66 -13 141 -5 76 -11 139 -13 141
-2 2 -138 -85 -301 -193 l-297 -196 321 -162 320 -161 -3 151 -4 151 55 8
c285 41 661 146 933 260 832 351 1369 949 1560 1738 136 557 111 1156 -78
1888 -25 96 -45 176 -45 178 0 6 -32 3 -70 -8z"/>
</g>
</svg>
