<svg width="26" height="33" viewBox="0 0 26 33" fill="none" xmlns="http://www.w3.org/2000/svg">
<path d="M25 8.75V24.25C25 30.45 23.5 32 17.5 32H8.5C2.5 32 1 30.45 1 24.25V8.75C1 2.55 2.5 1 8.5 1H17.5C23.5 1 25 2.55 25 8.75Z" stroke="white" stroke-width="1.5" stroke-linecap="round" stroke-linejoin="round"/>
<path opacity="0.4" d="M16 6.4248H10" stroke="white" stroke-width="1.5" stroke-linecap="round" stroke-linejoin="round"/>
<path opacity="0.4" d="M12.9998 27.5052C14.2839 27.5052 15.3248 26.4296 15.3248 25.1027C15.3248 23.7758 14.2839 22.7002 12.9998 22.7002C11.7157 22.7002 10.6748 23.7758 10.6748 25.1027C10.6748 26.4296 11.7157 27.5052 12.9998 27.5052Z" stroke="white" stroke-width="1.5" stroke-linecap="round" stroke-linejoin="round"/>
</svg>
