<svg width="38" height="38" viewBox="0 0 38 38" fill="none" xmlns="http://www.w3.org/2000/svg">
<g opacity="0.4">
<path d="M17.0205 35.6252H21.0104C22.5304 35.6252 23.5121 34.5486 23.2271 33.2344L22.578 30.3687H15.453L14.8038 33.2344C14.5188 34.4694 15.5955 35.6252 17.0205 35.6252Z" stroke="white" stroke-width="1.5" stroke-linecap="round" stroke-linejoin="round"/>
<path d="M22.5785 30.3528L25.3177 27.9144C26.8535 26.5527 26.9169 25.6026 25.6977 24.0668L20.8685 17.9394C19.8552 16.6569 18.1927 16.6569 17.1794 17.9394L12.3502 24.0668C11.131 25.6026 11.131 26.6002 12.7302 27.9144L15.4694 30.3528" stroke="white" stroke-width="1.5" stroke-linecap="round" stroke-linejoin="round"/>
<path d="M19.0156 17.6069V21.6128" stroke="white" stroke-width="1.5" stroke-linecap="round" stroke-linejoin="round"/>
</g>
<path d="M17.654 8.21737L16.419 6.98232C15.6748 6.23815 15.6748 5.0349 16.419 4.29073L17.654 3.05568C18.3981 2.31152 19.6015 2.31152 20.3456 3.05568L21.5806 4.29073C22.3248 5.0349 22.3248 6.23815 21.5806 6.98232L20.3456 8.21737C19.6015 8.96153 18.3981 8.96153 17.654 8.21737Z" stroke="white" stroke-width="1.5" stroke-linecap="round" stroke-linejoin="round"/>
<path d="M30.796 15.5327H32.5377C33.5827 15.5327 34.4377 16.3877 34.4377 17.4327V19.1744C34.4377 20.2194 33.5827 21.0745 32.5377 21.0745H30.796C29.751 21.0745 28.896 20.2194 28.896 19.1744V17.4327C28.896 16.3877 29.751 15.5327 30.796 15.5327Z" stroke="white" stroke-width="1.5" stroke-linecap="round" stroke-linejoin="round"/>
<path d="M7.20417 15.5327H5.4625C4.4175 15.5327 3.5625 16.3877 3.5625 17.4327V19.1744C3.5625 20.2194 4.4175 21.0745 5.4625 21.0745H7.20417C8.24917 21.0745 9.10417 20.2194 9.10417 19.1744V17.4327C9.10417 16.3877 8.24917 15.5327 7.20417 15.5327Z" stroke="white" stroke-width="1.5" stroke-linecap="round" stroke-linejoin="round"/>
<path d="M29.355 15.9917L20.9634 7.6001" stroke="white" stroke-width="1.5" stroke-linecap="round" stroke-linejoin="round"/>
<path d="M8.64502 15.9917L17.0367 7.6001" stroke="white" stroke-width="1.5" stroke-linecap="round" stroke-linejoin="round"/>
</svg>
