<svg width="48" height="48" viewBox="0 0 48 48" fill="none" xmlns="http://www.w3.org/2000/svg">
<path d="M24.002 18C20.6872 18 18.002 20.6862 18.002 24C18.002 27.3146 20.6882 30 24.002 30C27.3166 30 30.002 27.3138 30.002 24C30.002 20.6854 27.3158 18 24.002 18ZM24.002 14C29.5228 14 34.002 18.4742 34.002 24C34.002 29.521 29.5278 34 24.002 34C18.481 34 14.002 29.5258 14.002 24C14.002 18.4791 18.4762 14 24.002 14ZM37.002 13.4983C37.002 14.8785 35.8804 15.9983 34.502 15.9983C33.1218 15.9983 32.002 14.8768 32.002 13.4983C32.002 12.1198 33.1234 11 34.502 11C35.8786 10.9983 37.002 12.1198 37.002 13.4983ZM24.002 8C19.053 8 18.2464 8.0131 15.9445 8.1156C14.3763 8.18922 13.3251 8.40014 12.3483 8.77934C11.4803 9.11598 10.8542 9.51796 10.187 10.1851C9.51733 10.8548 9.11607 11.4793 8.78079 12.3477C8.40071 13.3266 8.18985 14.3762 8.11755 15.9423C8.01405 18.1504 8.00195 18.9221 8.00195 24C8.00195 28.949 8.01505 29.7556 8.11753 32.0572C8.19119 33.6248 8.40239 34.6776 8.78067 35.652C9.11819 36.5212 9.52099 37.1488 10.1849 37.8128C10.8573 38.4842 11.4836 38.8868 12.3437 39.2188C13.3324 39.601 14.383 39.8122 15.9442 39.8844C18.1524 39.9878 18.9241 40 24.002 40C28.951 40 29.7576 39.9868 32.0592 39.8844C33.6234 39.811 34.677 39.5992 35.654 39.2212C36.5208 38.8846 37.1504 38.4804 37.8148 37.817C38.4872 37.1436 38.889 36.5188 39.2214 35.6566C39.6026 34.6716 39.8142 33.6196 39.8864 32.0578C39.9898 29.8496 40.002 29.0778 40.002 24C40.002 19.051 39.9888 18.2444 39.8864 15.9427C39.8128 14.3781 39.601 13.323 39.2226 12.3464C38.8868 11.4808 38.4834 10.8527 37.8168 10.1851C37.146 9.5143 36.5232 9.11386 35.6542 8.77884C34.676 8.39908 33.6248 8.18792 32.0596 8.11562C29.8516 8.0121 29.0798 8 24.002 8ZM24.002 4C29.4352 4 30.1136 4.02 32.247 4.12C34.3752 4.21834 35.827 4.555 37.102 5.05C38.4202 5.55834 39.5336 6.245 40.6452 7.35666C41.7552 8.46834 42.442 9.585 42.952 10.9C43.4452 12.1733 43.782 13.6267 43.882 15.755C43.977 17.8883 44.002 18.5667 44.002 24C44.002 29.4334 43.982 30.1116 43.882 32.245C43.7836 34.3734 43.4452 35.825 42.952 37.1C42.4436 38.4184 41.7552 39.5316 40.6452 40.6434C39.5336 41.7534 38.4152 42.44 37.102 42.95C35.827 43.4434 34.3752 43.78 32.247 43.88C30.1136 43.975 29.4352 44 24.002 44C18.5686 44 17.8903 43.98 15.757 43.88C13.6286 43.7816 12.1786 43.4434 10.902 42.95C9.58527 42.4416 8.47027 41.7534 7.35861 40.6434C6.24695 39.5316 5.56195 38.4134 5.05195 37.1C4.55695 35.825 4.22195 34.3734 4.12195 32.245C4.02695 30.1116 4.00195 29.4334 4.00195 24C4.00195 18.5667 4.02195 17.8883 4.12195 15.755C4.22027 13.625 4.55695 12.175 5.05195 10.9C5.56027 9.58334 6.24695 8.46834 7.35861 7.35666C8.47027 6.245 9.58695 5.56 10.902 5.05C12.177 4.555 13.627 4.22 15.757 4.12C17.8903 4.025 18.5686 4 24.002 4Z" fill="#16171B"/>
</svg>
